<svg width="751" height="300" viewBox="0 0 751 300" fill="none" xmlns="http://www.w3.org/2000/svg">
<g clip-path="url(#clip0_2347_437)">
<path d="M117.544 115.712C115.924 107.912 121.585 100.388 129.577 99.7111C130.891 99.5798 131.26 100.665 131.329 101.756C132.386 109.011 127.323 115.747 120.02 116.804C118.956 117.046 117.795 117.011 117.551 115.719L117.544 115.712Z" fill="#010101"/>
<path d="M53.7281 113.529C45.7577 112.665 40.2841 105.01 42.0854 97.2515C42.3636 95.9664 43.5112 95.9526 44.5753 96.2221C51.8572 97.445 56.7536 104.299 55.5225 111.532C55.4321 112.61 55.0357 113.702 53.7212 113.529H53.7281Z" fill="#010101"/>
<path d="M116.274 82.0588C103.122 81.133 92.1124 92.0699 93.0444 105.135C93.0444 106.516 94.1711 107.636 95.5621 107.636H97.2731C109.159 107.636 118.792 98.0669 118.792 86.2595V84.5599C118.792 83.1781 117.665 82.0588 116.274 82.0588Z" fill="#0E6EB6"/>
<path d="M38.0355 66.0991H36.3246C34.9336 66.0991 33.8069 67.2183 33.8069 68.6001V70.2997C33.7512 82.7842 44.5802 92.5051 57.0367 91.676C58.4277 91.676 59.5544 90.5567 59.5544 89.175V87.4754C59.5544 75.668 49.9217 66.0991 38.0355 66.0991Z" fill="#0E6EB6"/>
<path d="M106.439 19.6778C106.787 20.9422 107.941 20.8938 108.991 20.5553C116.183 18.9109 120.676 11.7809 119.014 4.63704C118.861 3.56615 118.402 2.50217 117.101 2.74398C109.193 4.0705 104.179 12.0365 106.439 19.6778Z" fill="#A71E22"/>
<path d="M7.33976 65.8642C10.2956 72.939 18.7182 75.9858 25.6176 72.6488C26.8069 72.103 26.5704 70.9561 26.0558 70.0027C23.1972 63.2388 15.3659 60.0607 8.55689 62.8933C7.52755 63.2181 6.53298 63.8675 7.00592 65.0904L7.3328 65.8711L7.33976 65.8642Z" fill="#0E6EB6"/>
<path d="M165.821 79.3504C158.915 75.9374 150.548 79.1293 147.551 86.1488C147.015 87.351 147.94 88.035 148.962 88.4357C155.584 91.676 163.596 88.9746 166.858 82.3973C167.421 81.4715 167.741 80.3591 166.58 79.7304L165.821 79.3573V79.3504Z" fill="#0E6EB6"/>
<path d="M160.387 100.153C152.333 96.8231 143.145 101.051 140.287 109.197C139.779 110.593 140.871 111.297 142.06 111.664C149.78 114.821 158.613 111.166 161.792 103.504C162.355 102.412 162.633 101.134 161.277 100.512L160.387 100.146V100.153Z" fill="#A71E22"/>
<path d="M42.0763 34.166C43.1334 34.4354 44.2949 34.4285 44.5662 33.1365L44.7053 32.3075C45.9363 25.0738 41.033 18.2201 33.7581 16.9972C32.7009 16.7278 31.5394 16.7347 31.2682 18.0267C29.5642 25.4676 34.4675 32.9154 42.0763 34.166Z" fill="#0E6EB6"/>
<path d="M81.0235 51.3485C81.872 52.0255 82.9361 52.5023 83.7221 51.4383L84.195 50.7405C88.3333 44.6675 86.7405 36.4113 80.6271 32.3005C79.7786 31.6234 78.7144 31.1467 77.9285 32.2107C73.2756 38.2767 74.6179 47.0718 81.0235 51.3485Z" fill="#0E6EB6"/>
<path d="M86.0471 19.9196C87.0486 20.7556 87.9945 20.0509 88.6413 19.1804C93.5655 13.7154 93.0995 5.321 87.5981 0.429461C86.8608 -0.35125 85.8454 -0.966147 84.9343 -0.0196207C79.2451 5.59045 79.7667 14.9659 86.0401 19.9196H86.0471Z" fill="#0E6EB6"/>
<path d="M96.6406 56.0535C97.3361 57.2487 98.8801 57.6633 100.083 56.9724L101.565 56.1226C111.858 50.2223 115.384 37.1437 109.438 26.9253L108.582 25.4537C107.887 24.2585 106.343 23.8439 105.14 24.5348C93.2813 30.2624 89.2543 45.2064 96.6406 56.0535Z" fill="#0E6EB6"/>
<path d="M140.863 79.0672C140.947 77.9894 140.738 76.8494 139.417 76.8011H138.568C131.189 76.8356 125.228 82.8049 125.256 90.1353C125.173 91.2131 125.381 92.3531 126.703 92.4015C134.374 92.7953 140.919 86.7223 140.863 79.0603V79.0672Z" fill="#0E6EB6"/>
<path d="M88.4898 107.187C87.53 106.302 86.5563 106.952 85.8608 107.781C80.6376 112.969 80.6376 121.371 85.8608 126.559C86.5563 127.381 87.5369 128.045 88.4898 127.153C94.485 121.868 94.485 112.472 88.4898 107.18V107.187Z" fill="#A71E22"/>
<path d="M107.756 62.2645C99.9108 63.9227 95.2439 72.0891 97.8243 79.6267C98.2276 80.8773 99.3752 80.7805 100.412 80.4005C107.527 78.4522 111.713 71.1425 109.752 64.0747C109.55 63.0107 109.05 61.9675 107.763 62.2645H107.756Z" fill="#0E6EB6"/>
<path d="M132.29 53.8356C124.584 54.1673 118.818 60.9726 119.597 68.5586C119.715 69.8644 120.856 70.0233 121.948 69.8782C129.32 69.5397 135.023 63.3216 134.675 55.9981C134.717 54.9203 134.46 53.7873 133.131 53.7942L132.283 53.8356H132.29Z" fill="#A71E22"/>
<path d="M141.41 49.8077C147.238 50.0012 152.114 45.462 152.301 39.6723C152.329 38.7396 151.599 37.9658 150.66 37.9313C144.832 37.7378 139.956 42.277 139.768 48.0667C139.741 48.9994 140.471 49.7732 141.41 49.8077Z" fill="#0E6EB6"/>
<path d="M69.2036 91.2891C68.3203 90.9713 67.3535 91.4273 67.0336 92.3047C65.0584 97.749 67.903 103.76 73.3835 105.722C74.2668 106.04 75.2336 105.584 75.5535 104.706C77.5287 99.262 74.6841 93.2512 69.2036 91.2891Z" fill="#0E6EB6"/>
<path d="M55.526 60.5581C56.5136 61.0072 57.6681 61.2075 58.1619 59.9847L58.4471 59.1901C60.9509 52.2881 57.3482 44.6813 50.4001 42.1941C49.4125 41.745 48.258 41.5447 47.7642 42.7676C44.7596 49.787 48.251 57.9811 55.519 60.5512L55.526 60.5581Z" fill="#0E6EB6"/>
<path d="M73.2076 59.8396L73.9031 60.1988C82.722 64.814 86.123 75.6956 81.4771 84.4631L81.0946 85.1816C76.7268 83.0675 73.3397 79.2883 71.747 74.7076C70.0917 69.9612 70.4812 64.9315 72.8389 60.5166L73.2006 59.8326M72.825 56.0949C71.9209 56.0949 71.0376 56.5854 70.5994 57.4283L69.8065 58.9345C63.9017 69.9612 68.9233 83.5925 80.3434 88.5946C80.719 88.795 81.1154 88.8848 81.5119 88.8848C82.416 88.8848 83.2854 88.3943 83.7444 87.5514L84.5373 86.0452C90.0735 75.592 86.0187 62.6722 75.5166 57.1727L74.0004 56.3851C73.6249 56.1847 73.2284 56.0949 72.832 56.0949H72.825Z" fill="#A71E22"/>
<path d="M139.934 19.0975L140.045 19.8644C141.478 29.6682 134.621 38.7949 124.772 40.2181L123.951 40.3356C123.096 35.603 124.181 30.6631 126.97 26.6904C129.863 22.5658 134.189 19.9058 139.148 19.2149L139.948 19.1044M140.734 15.5601C140.609 15.5601 140.484 15.567 140.358 15.5877L138.647 15.8295C126.233 17.5706 118.054 29.6198 120.71 41.7243C120.87 42.9748 121.962 43.873 123.193 43.873C123.312 43.873 123.423 43.8661 123.541 43.8522L125.252 43.6104C137.013 41.9108 145.157 31.0638 143.453 19.3807L143.21 17.7019C143.036 16.4721 141.965 15.567 140.734 15.567V15.5601Z" fill="#0E6EB6"/>
<path d="M155.719 55.784C158.849 55.0793 162.09 55.2106 165.15 56.1571L164.928 56.9516C163.154 63.3493 158.001 68.2339 151.477 69.7056C148.604 70.355 145.572 70.279 142.706 69.4983L141.914 69.2841C143.499 62.5893 148.848 57.3316 155.719 55.784ZM154.954 52.4539C146.893 54.271 140.112 60.5788 138.387 69.2841C137.998 70.6037 138.791 71.9855 140.133 72.3517L141.795 72.8008C145.328 73.768 148.896 73.7957 152.235 73.0426C159.725 71.3568 166.061 65.726 168.238 57.8636L168.69 56.2124C169.059 54.8789 168.266 53.4971 166.931 53.1448C162.925 51.7354 158.793 51.5834 154.947 52.447L154.954 52.4539Z" fill="#0E6EB6"/>
<path d="M13.2073 82.2729C20.1067 82.2729 26.4497 86.1281 29.5586 92.1527L28.8353 92.5603C26.1507 94.0388 23.1252 94.8196 20.0789 94.8196C13.4994 94.8196 7.43466 91.2753 4.2423 85.5547L3.84586 84.8568C6.68352 83.1642 9.9037 82.2729 13.2073 82.2729ZM13.2073 78.853C9.15255 78.853 5.04908 79.9722 1.37683 82.3558C0.180562 83.0052 -0.278471 84.5321 0.403123 85.755L1.23773 87.2335C5.16732 94.2668 12.5118 98.2395 20.0789 98.2395C23.6121 98.2395 27.1939 97.3759 30.5045 95.5519L31.9929 94.7159C33.21 94.0527 33.6412 92.512 32.9805 91.3236C29.2596 83.3783 21.3447 78.853 13.2073 78.853Z" fill="#A71E22"/>
<path d="M16.2659 34.5044C14.9166 34.5044 13.7899 35.6029 13.776 36.9571L13.7412 38.6705C13.5117 50.7474 23.513 60.413 35.4548 60.413C35.8512 60.413 36.2477 60.3992 36.6511 60.3784C36.6719 60.3784 36.6928 60.3784 36.7136 60.3784C38.0629 60.3784 39.1896 59.2799 39.2036 57.9258L39.2383 56.2262C39.4122 44.4188 29.9255 34.7048 18.0394 34.5182L16.3285 34.5044C16.3285 34.5044 16.2867 34.5044 16.2659 34.5044Z" fill="#A71E22"/>
<path d="M58.6388 8.82395L59.3135 9.18321C59.3135 9.18321 59.3274 9.19012 59.3343 9.19703C63.6047 11.4217 66.7484 15.1733 68.1811 19.7608C69.6139 24.3415 69.1688 29.1984 66.9292 33.4475L66.5397 34.1729C62.1789 32.0795 58.7918 28.3072 57.1922 23.7266C55.5299 18.9732 55.9125 13.9366 58.2772 9.52175L58.6388 8.83086M58.2563 5.07239C57.3452 5.07239 56.4689 5.55601 56.0237 6.41963L55.2309 7.92578C49.34 18.9317 54.3545 32.5907 65.7677 37.5721C66.1433 37.7794 66.5467 37.8692 66.9431 37.8692C67.8473 37.8692 68.7236 37.3717 69.1688 36.5427L69.9825 35.0365C75.5048 24.5833 71.4639 11.6497 60.9409 6.164L59.4247 5.35565C59.0561 5.1622 58.6527 5.07239 58.2633 5.07239H58.2563Z" fill="#A71E22"/>
<path d="M32.8466 111.042L32.5058 110.261C29.5221 103.47 21.5655 100.368 14.7287 103.331L13.9428 103.67C13.2056 103.988 12.8718 104.838 13.1917 105.57L13.5325 106.351C16.5162 113.142 24.4727 116.244 31.3095 113.28L32.0955 112.942C32.8327 112.624 33.1665 111.774 32.8466 111.042Z" fill="#0E6EB6"/>
<path d="M149.959 226C136.438 226.11 100.272 225.806 87.461 226H85.5135C72.9041 225.806 36.3067 226.11 23.0156 226C23.0156 226 23.0643 225.986 23.1686 225.951C24.6501 225.406 36.8979 221.101 46.3498 220.521C49.2639 220.334 51.3017 220.3 52.804 220.279C53.9586 220.127 55.1131 219.899 56.219 219.595C56.2537 219.595 56.2885 219.581 56.3233 219.561H56.372C57.2205 219.374 60.6702 218.517 64.565 215.657C64.5789 215.657 64.5789 215.643 64.5789 215.643C65.2675 215.146 65.9212 214.579 66.582 214.013C67.1523 213.481 67.7365 212.914 68.3277 212.299C68.3972 212.216 68.4668 212.147 68.5363 212.078C72.4172 207.809 75.707 203.629 77.3623 193.521C77.8213 190.73 77.7309 189.762 77.9047 187.51C78.1064 189.299 80.5894 194.454 86.4942 201.501C93.5466 209.916 108.646 216.168 108.646 216.168C109.46 216.839 113.195 219.416 115.476 220.024C115.545 220.037 115.629 220.072 115.698 220.072C115.851 220.12 116.011 220.155 116.178 220.176C119.259 220.438 122.257 220.155 126.618 220.521C136.07 221.101 148.317 225.406 149.799 225.951C149.848 225.965 149.903 225.986 149.952 226H149.959Z" fill="#010101"/>
<path d="M100.751 205.95C92.6273 203.615 79.7049 191.863 78.6338 181.568V181.555C78.9955 173.464 79.3084 169.664 78.9954 165.74C80.0317 169.471 82.3686 173.499 85.1159 177.547C87.9257 181.831 92.8151 186.543 96.2926 189.23C96.4109 190.239 96.5152 190.992 96.5847 191.393C96.5847 191.462 96.5986 191.51 96.5986 191.545C96.6125 191.683 96.6334 191.752 96.6334 191.752C96.6473 191.973 96.6821 192.194 96.7169 192.402C96.856 193.41 97.009 194.371 97.2176 195.317C97.2872 195.794 97.3915 196.277 97.5098 196.74C97.6141 197.217 97.7184 197.68 97.8575 198.129C98.3513 200.057 98.9703 202.026 99.7562 203.815C100.069 204.568 100.41 205.273 100.737 205.957L100.751 205.95Z" fill="#010101"/>
<path d="M134.195 116.949C133.548 117.647 132.936 118.303 132.282 118.952C127.762 123.595 122.865 127.83 117.6 131.665C116.745 132.301 115.889 132.922 115.013 133.551C114.804 133.724 114.596 133.876 114.373 134.028C108.545 138.249 102.772 142.547 97.8967 147.991C97.7924 148.108 97.6742 148.212 97.5837 148.35C96.304 149.856 95.6363 151.176 95.6016 152.634C95.6155 152.806 95.6155 161.512 95.6155 161.719C95.7198 166.479 96.0119 169.27 95.9632 176.11C95.9771 176.159 95.9771 176.214 95.9632 176.262C95.9284 177.312 95.9076 178.39 95.9145 179.482C95.8798 180.048 95.8798 180.594 95.8659 181.126C88.257 177.713 81.5315 167.937 79.1529 159.909C79.2016 157.767 79.2711 155.694 79.3268 153.794C79.3616 153.539 79.3755 153.318 79.3755 153.076C79.3268 151.639 78.3948 150.402 77.3376 149.082C74.9242 146.036 72.1631 143.376 69.2281 140.957C68.2474 140.018 67.1416 139.071 65.9314 138.146L65.8966 138.111C56.3752 131.534 47.3058 124.348 39.3145 116.023L39.231 115.94L39.0432 115.733L37.4923 114.033C37.061 113.688 37.3532 112.928 37.9096 112.935C37.9443 112.9 38.0556 112.921 38.0974 112.921C39.2171 112.99 40.2882 113.349 41.2341 113.964C41.4427 114.068 41.6166 114.206 41.8044 114.358C42.6529 115.077 43.5292 115.816 44.4264 116.5C49.0585 120.182 54.0731 123.305 59.4702 125.703C61.0211 126.407 62.8712 127.533 64.4917 127.568C65.1663 127.602 65.7853 127.45 66.3348 127.001C68.769 125.067 65.7853 122.697 65.2637 120.555C64.8186 118.724 64.1787 116.99 63.5875 115.263C63.3093 114.779 63.6223 114.109 64.1022 113.943C64.1857 113.895 64.29 113.874 64.3804 113.874C64.6378 113.805 64.8812 113.757 65.1037 113.757C65.7923 113.709 66.3278 113.964 66.759 114.8C69.8123 120.728 75.1399 124.5 79.9388 128.798C82.6304 131.195 84.4944 134.387 84.5987 138.118C84.6682 140.308 85.3777 142.021 87.4642 143.769C87.8815 144.129 88.3753 144.474 88.9108 144.833C88.9943 144.882 89.0847 144.951 89.1682 145.006C89.0499 143.839 89.029 142.726 89.1195 141.683V141.669C89.2377 139.61 89.7037 137.779 90.3783 136.114C90.3644 136.1 90.3783 136.08 90.4131 136.045C92.4648 130.988 96.7283 127.347 100.714 123.602C102.021 122.435 103.287 121.239 104.441 119.899L104.594 119.747C106.041 118.137 107.356 116.424 108.336 114.503C108.559 114.075 108.907 113.854 109.303 113.785C109.373 113.771 109.421 113.75 109.491 113.75C109.526 113.736 109.539 113.75 109.574 113.75C109.685 113.702 109.79 113.757 109.922 113.75C110.061 113.798 110.2 113.819 110.353 113.867C110.437 113.867 110.541 113.881 110.631 113.937C111.118 114.102 111.424 114.773 111.146 115.256C110.562 116.99 109.922 118.718 109.47 120.548C109.435 120.721 109.366 120.908 109.296 121.094C109.296 121.108 109.261 121.129 109.261 121.129C108.607 122.725 107.022 124.417 107.585 125.924C107.62 126.027 107.655 126.131 107.703 126.235C107.787 126.476 107.982 126.697 108.204 126.905C108.531 127.181 108.844 127.347 109.22 127.416C109.289 127.45 109.324 127.464 109.393 127.464C109.748 127.547 110.117 127.575 110.499 127.513C111.967 127.395 113.587 126.449 114.999 125.799C115.083 125.751 115.152 125.73 115.256 125.682C118.929 124.113 122.42 122.151 125.675 119.858C127.261 118.807 128.805 117.674 130.3 116.479C131.197 115.795 132.074 115.056 132.922 114.337C133.006 114.268 133.075 114.199 133.18 114.13C133.214 114.116 133.263 114.061 133.319 114.061C133.646 113.909 133.972 113.785 134.285 113.771C134.578 113.805 134.87 113.923 135.113 114.213C136.08 115.242 134.765 116.251 134.181 116.901L134.195 116.949Z" fill="#010101"/>
<path d="M195.927 211.919V13.6117C195.927 13.3906 196.115 13.2041 196.352 13.2041C196.588 13.2041 196.776 13.3837 196.776 13.6117V211.919C196.776 212.14 196.588 212.327 196.352 212.327C196.115 212.327 195.927 212.147 195.927 211.919Z" fill="#010101"/>
<path d="M314.194 148.903C314.194 149.393 314.069 149.635 313.825 149.635C310.946 149.635 308.644 149.594 306.919 149.511L297.418 149.386L286.311 149.511C284.83 149.594 282.813 149.635 280.267 149.635C280.024 149.635 279.899 149.393 279.899 148.903C279.899 148.412 280.024 148.17 280.267 148.17C283.307 148.17 285.532 147.97 286.93 147.556C288.328 147.148 289.274 146.374 289.768 145.227C290.262 144.087 290.505 142.243 290.505 139.714V111.525H250.653V139.714C250.653 142.167 250.896 143.984 251.39 145.165C251.884 146.353 252.83 147.148 254.228 147.556C255.626 147.963 257.844 148.17 260.891 148.17C261.057 148.17 261.134 148.412 261.134 148.903C261.134 149.393 261.05 149.635 260.891 149.635C258.011 149.635 255.709 149.594 253.984 149.511L243.253 149.386L234.002 149.511C232.354 149.594 230.094 149.635 227.214 149.635C227.047 149.635 226.964 149.393 226.964 148.903C226.964 148.412 227.047 148.17 227.214 148.17C230.094 148.17 232.187 147.97 233.509 147.556C234.823 147.148 235.727 146.353 236.221 145.165C236.715 143.984 236.958 142.16 236.958 139.714V82.9707C236.958 80.5181 236.715 78.7217 236.221 77.5748C235.727 76.428 234.844 75.6334 233.571 75.1843C232.298 74.7353 230.261 74.5073 227.465 74.5073C227.221 74.5073 227.096 74.2655 227.096 73.7749C227.096 73.2844 227.221 73.0426 227.465 73.0426L234.128 73.1669C237.911 73.3327 240.957 73.4087 243.26 73.4087C246.382 73.4087 250.006 73.3258 254.116 73.1669L260.904 73.0426C261.071 73.0426 261.148 73.2844 261.148 73.7749C261.148 74.2655 261.064 74.5073 260.904 74.5073C257.942 74.5073 255.765 74.756 254.367 75.2396C252.969 75.7302 252.002 76.5661 251.466 77.7545C250.931 78.9428 250.667 80.7599 250.667 83.2056V108.085H290.519V83.2056C290.519 80.753 290.269 78.9359 289.782 77.7545C289.288 76.573 288.342 75.7302 286.944 75.2396C285.546 74.7491 283.32 74.5073 280.281 74.5073C280.038 74.5073 279.913 74.2655 279.913 73.7749C279.913 73.2844 280.038 73.0426 280.281 73.0426L286.325 73.1669C290.435 73.3327 294.136 73.4087 297.432 73.4087C299.651 73.4087 302.822 73.3258 306.933 73.1669L313.839 73.0426C314.083 73.0426 314.208 73.2844 314.208 73.7749C314.208 74.2655 314.083 74.5073 313.839 74.5073C311.043 74.5073 308.964 74.7353 307.607 75.1843C306.251 75.6334 305.347 76.428 304.895 77.5748C304.443 78.7217 304.213 80.5181 304.213 82.9707V139.714C304.213 142.167 304.443 143.984 304.895 145.165C305.347 146.353 306.23 147.148 307.545 147.556C308.859 147.963 310.96 148.17 313.839 148.17C314.083 148.17 314.208 148.412 314.208 148.903H314.194Z" fill="#010101"/>
<path d="M406.863 148.903C406.863 149.393 406.654 149.635 406.244 149.635C404.595 149.635 402.05 149.552 398.593 149.393C394.97 149.228 392.382 149.145 390.818 149.145C388.759 149.145 386.255 149.228 383.292 149.393C380.496 149.559 378.278 149.635 376.629 149.635C376.302 149.635 376.135 149.393 376.135 148.903C376.135 148.412 376.302 148.17 376.629 148.17C378.764 148.17 380.309 147.949 381.254 147.493C382.2 147.044 382.673 146.25 382.673 145.103C382.673 143.714 381.853 141.386 380.204 138.118L371.816 121.571H341.465L336.652 132.231C335.581 134.601 335.045 136.805 335.045 138.85C335.045 141.793 336.095 144.08 338.189 145.711C340.289 147.348 343.106 148.164 346.639 148.164C347.05 148.164 347.258 148.405 347.258 148.896C347.258 149.386 347.05 149.628 346.639 149.628C345.158 149.628 343.016 149.545 340.227 149.386C337.097 149.221 334.384 149.138 332.082 149.138C329.78 149.138 327.186 149.221 324.063 149.386C321.267 149.552 319.007 149.628 317.275 149.628C316.948 149.628 316.781 149.386 316.781 148.896C316.781 148.405 316.948 148.164 317.275 148.164C319.577 148.164 321.511 147.694 323.076 146.754C324.64 145.814 326.198 144.143 327.763 141.731C329.328 139.32 331.178 135.748 333.313 131.009L360.09 72.5451C360.257 72.3033 360.626 72.1789 361.203 72.1789C361.864 72.1789 362.232 72.3033 362.316 72.5451L393.161 132.846C396.041 138.65 398.426 142.65 400.318 144.854C402.21 147.058 404.185 148.164 406.244 148.164C406.654 148.164 406.863 148.405 406.863 148.896V148.903ZM343.071 118.137H369.966L355.778 90.1905L343.071 118.137Z" fill="#010101"/>
<path d="M467.002 113.481C471.071 117.239 473.109 121.896 473.109 127.451C473.109 131.7 471.878 135.541 469.409 138.975C466.94 142.408 463.525 145.124 459.171 147.127C454.81 149.131 449.955 150.133 444.614 150.133C442.312 150.133 439.676 150.008 436.72 149.766C435.565 149.684 434.147 149.601 432.464 149.518C430.78 149.435 428.903 149.393 426.851 149.393L417.844 149.518C416.196 149.601 413.977 149.642 411.181 149.642C410.938 149.642 410.812 149.4 410.812 148.91C410.812 148.419 410.938 148.177 411.181 148.177C413.567 148.177 415.375 147.956 416.613 147.5C417.844 147.051 418.727 146.236 419.263 145.048C419.798 143.866 420.063 142.084 420.063 139.714V82.9707C420.063 79.537 419.485 77.2708 418.338 76.1654C417.183 75.06 414.839 74.5072 411.306 74.5072C411.139 74.5072 411.056 74.2654 411.056 73.7749C411.056 73.2844 411.139 73.0425 411.306 73.0425L417.844 73.1669C421.628 73.3327 424.632 73.4087 426.851 73.4087C429.069 73.4087 431.538 73.2844 434.008 73.0425C434.828 72.9596 436.066 72.8767 437.708 72.7938C439.349 72.7109 440.789 72.6695 442.027 72.6695C449.51 72.6695 455.311 74.0167 459.421 76.7112C463.532 79.4057 465.59 83.33 465.59 88.4771C465.59 92.4014 464.297 95.9526 461.702 99.1377C459.108 102.323 455.387 104.817 450.54 106.613C457.446 107.428 462.94 109.722 467.009 113.474L467.002 113.481ZM435.232 77.0152C434.327 78.1206 433.875 80.1795 433.875 83.2056V106.496L438.813 106.62C443.091 106.62 446.381 105.024 448.683 101.839C450.985 98.654 452.139 94.5708 452.139 89.5826C452.139 84.9259 451.11 81.3886 449.058 78.9842C447 76.573 444.044 75.3709 440.177 75.3709C437.791 75.3709 436.143 75.9236 435.239 77.0221L435.232 77.0152ZM458.677 130.394C458.677 124.1 457.154 119.118 454.114 115.443C451.068 111.767 446.464 109.929 440.295 109.929C437.909 109.929 435.774 110.012 433.882 110.171V139.707C433.882 142.401 434.418 144.301 435.489 145.407C436.56 146.512 438.904 147.058 442.52 147.058C453.294 147.058 458.684 141.503 458.684 130.387L458.677 130.394Z" fill="#010101"/>
<path d="M508.145 145.227C508.555 146.374 509.355 147.148 510.551 147.556C511.741 147.963 513.653 148.17 516.289 148.17C516.54 148.17 516.658 148.412 516.658 148.903C516.658 149.393 516.533 149.635 516.289 149.635C513.577 149.635 511.435 149.594 509.877 149.511L500.501 149.386L491.369 149.511C489.721 149.594 487.502 149.635 484.706 149.635C484.54 149.635 484.456 149.393 484.456 148.903C484.456 148.412 484.54 148.17 484.706 148.17C487.335 148.17 489.269 147.97 490.507 147.556C491.738 147.148 492.587 146.353 493.039 145.165C493.491 143.984 493.72 142.16 493.72 139.714V82.9707C493.72 80.5181 493.491 78.7217 493.039 77.5748C492.587 76.428 491.745 75.6334 490.507 75.1843C489.276 74.7353 487.342 74.5073 484.706 74.5073C484.54 74.5073 484.456 74.2655 484.456 73.7749C484.456 73.2844 484.54 73.0426 484.706 73.0426L491.369 73.1669C495.153 73.3327 498.199 73.4087 500.501 73.4087C503.054 73.4087 506.218 73.3258 510.002 73.1669L516.296 73.0426C516.547 73.0426 516.665 73.2844 516.665 73.7749C516.665 74.2655 516.54 74.5073 516.296 74.5073C513.744 74.5073 511.852 74.756 510.621 75.2396C509.39 75.7302 508.562 76.5661 508.152 77.7545C507.742 78.9428 507.533 80.7599 507.533 83.2056V139.707C507.533 142.243 507.735 144.08 508.152 145.22L508.145 145.227Z" fill="#010101"/>
<path d="M528.009 94.8541C527.925 95.096 527.682 95.1996 527.271 95.1581C526.861 95.1167 526.652 94.9716 526.652 94.7298C526.979 91.4619 527.348 87.2336 527.765 82.045C528.175 76.8563 528.384 72.9528 528.384 70.3412C528.384 69.9336 528.607 69.7263 529.066 69.7263C529.525 69.7263 529.747 69.9336 529.747 70.3412C529.747 72.1375 532.091 73.0357 536.779 73.0357C543.852 73.2775 552.122 73.4019 561.58 73.4019C566.435 73.4019 571.575 73.3189 577 73.16L585.388 73.0357C588.51 73.0357 590.799 72.8353 592.238 72.4208C593.678 72.0132 594.603 71.1979 595.013 69.9681C595.097 69.6434 595.361 69.4776 595.813 69.4776C596.265 69.4776 596.495 69.6434 596.495 69.9681C596.251 72.4208 595.98 76.3382 595.695 81.734C595.403 87.1299 595.264 91.4619 595.264 94.7229C595.264 94.9716 595.055 95.0891 594.645 95.0891C594.234 95.0891 593.984 94.9647 593.907 94.7229C592.676 88.4288 590.367 83.7169 587.001 80.5664C583.628 77.4229 579.476 75.8476 574.538 75.8476C572.152 75.8476 570.566 76.3589 569.787 77.3814C569.002 78.4039 568.612 80.3454 568.612 83.2057V139.707C568.612 142.243 568.855 144.08 569.349 145.22C569.843 146.367 570.789 147.141 572.187 147.549C573.585 147.956 575.804 148.164 578.85 148.164C579.1 148.164 579.218 148.405 579.218 148.896C579.218 149.386 579.093 149.628 578.85 149.628C575.887 149.628 573.543 149.587 571.818 149.504L561.58 149.38L551.586 149.504C549.861 149.587 547.469 149.628 544.429 149.628C544.179 149.628 544.061 149.386 544.061 148.896C544.061 148.405 544.186 148.164 544.429 148.164C547.392 148.164 549.59 147.963 551.03 147.549C552.469 147.141 553.457 146.347 553.993 145.158C554.528 143.977 554.792 142.153 554.792 139.707V82.9638C554.792 80.1864 554.424 78.3072 553.68 77.3261C552.942 76.3451 551.419 75.8545 549.117 75.8545C539.324 75.8545 532.293 82.19 528.022 94.8541H528.009Z" fill="#010101"/>
<path d="M681.504 148.903C681.504 149.393 681.296 149.635 680.885 149.635C679.237 149.635 676.692 149.552 673.235 149.393C669.611 149.228 667.024 149.145 665.459 149.145C663.4 149.145 660.897 149.228 657.934 149.393C655.138 149.559 652.919 149.635 651.271 149.635C650.944 149.635 650.777 149.393 650.777 148.903C650.777 148.412 650.944 148.17 651.271 148.17C653.406 148.17 654.95 147.949 655.896 147.493C656.842 147.044 657.315 146.25 657.315 145.103C657.315 143.714 656.494 141.386 654.846 138.118L646.458 121.571H616.106L611.293 132.231C610.222 134.601 609.687 136.805 609.687 138.85C609.687 141.793 610.737 144.08 612.83 145.711C614.931 147.348 617.748 148.164 621.281 148.164C621.691 148.164 621.9 148.405 621.9 148.896C621.9 149.386 621.691 149.628 621.281 149.628C619.799 149.628 617.657 149.545 614.868 149.386C611.738 149.221 609.026 149.138 606.724 149.138C604.422 149.138 601.828 149.221 598.705 149.386C595.909 149.552 593.648 149.628 591.917 149.628C591.59 149.628 591.423 149.386 591.423 148.896C591.423 148.405 591.59 148.164 591.917 148.164C594.219 148.164 596.152 147.694 597.717 146.754C599.282 145.814 600.84 144.143 602.405 141.731C603.97 139.32 605.82 135.748 607.955 131.009L634.732 72.5451C634.899 72.3033 635.267 72.1789 635.845 72.1789C636.505 72.1789 636.874 72.3033 636.957 72.5451L667.803 132.846C670.682 138.65 673.068 142.65 674.96 144.854C676.851 147.058 678.827 148.164 680.885 148.164C681.296 148.164 681.504 148.405 681.504 148.896V148.903ZM617.713 118.137H644.608L630.42 90.1905L617.713 118.137Z" fill="#010101"/>
<path d="M678.412 94.8541C678.328 95.096 678.085 95.1996 677.675 95.1581C677.264 95.1167 677.056 94.9716 677.056 94.7298C677.383 91.4619 677.751 87.2336 678.168 82.045C678.579 76.8563 678.787 72.9528 678.787 70.3412C678.787 69.9336 679.01 69.7263 679.469 69.7263C679.928 69.7263 680.151 69.9336 680.151 70.3412C680.151 72.1375 682.494 73.0357 687.182 73.0357C694.255 73.2775 702.525 73.4019 711.984 73.4019C716.838 73.4019 721.978 73.3189 727.403 73.16L735.791 73.0357C738.914 73.0357 741.202 72.8353 742.642 72.4208C744.081 72.0132 745.006 71.1979 745.417 69.9681C745.5 69.6434 745.764 69.4776 746.216 69.4776C746.669 69.4776 746.898 69.6434 746.898 69.9681C746.655 72.4208 746.383 76.3382 746.098 81.734C745.806 87.1299 745.667 91.4619 745.667 94.7229C745.667 94.9716 745.458 95.0891 745.048 95.0891C744.638 95.0891 744.387 94.9647 744.311 94.7229C743.08 88.4288 740.771 83.7169 737.404 80.5664C734.031 77.4229 729.879 75.8476 724.941 75.8476C722.555 75.8476 720.97 76.3589 720.191 77.3814C719.405 78.4039 719.015 80.3454 719.015 83.2057V139.707C719.015 142.243 719.259 144.08 719.753 145.22C720.246 146.367 721.192 147.141 722.59 147.549C723.988 147.956 726.207 148.164 729.253 148.164C729.504 148.164 729.622 148.405 729.622 148.896C729.622 149.386 729.497 149.628 729.253 149.628C726.29 149.628 723.946 149.587 722.222 149.504L711.984 149.38L701.989 149.504C700.265 149.587 697.872 149.628 694.833 149.628C694.582 149.628 694.464 149.386 694.464 148.896C694.464 148.405 694.589 148.164 694.833 148.164C697.796 148.164 699.993 147.963 701.433 147.549C702.873 147.141 703.86 146.347 704.396 145.158C704.931 143.977 705.196 142.153 705.196 139.707V82.9638C705.196 80.1864 704.827 78.3072 704.083 77.3261C703.346 76.3451 701.823 75.8545 699.52 75.8545C689.728 75.8545 682.696 82.19 678.426 94.8541H678.412Z" fill="#010101"/>
<path d="M272.113 28.5419C270.965 29.6266 270.082 31.264 269.47 33.4611C269.47 33.5163 269.387 33.5509 269.227 33.5509C269.067 33.5509 268.99 33.5094 268.99 33.4196C269.108 32.2935 269.234 30.8426 269.38 29.0601C269.526 27.2845 269.595 25.9441 269.595 25.046C269.595 24.9009 269.679 24.8318 269.839 24.8318C269.999 24.8318 270.075 24.9078 270.075 25.046C270.075 25.6816 270.889 25.9994 272.516 25.9994C275.02 26.0823 277.941 26.1307 281.294 26.1307C283.012 26.1307 284.827 26.103 286.753 26.0478L289.723 26.0063C290.829 26.0063 291.636 25.9372 292.144 25.7921C292.651 25.6471 292.978 25.3569 293.124 24.9285C293.152 24.8111 293.242 24.7558 293.389 24.7558C293.535 24.7558 293.604 24.8111 293.604 24.9285C293.521 25.8267 293.43 27.1808 293.34 29.0048C293.256 30.8288 293.208 32.3004 293.208 33.4265C293.208 33.5094 293.124 33.5578 292.964 33.5578C292.804 33.5578 292.707 33.5163 292.679 33.4265C292.387 31.2018 291.705 29.5575 290.627 28.5074C289.549 27.4503 288.096 26.9252 286.26 26.9252C285.446 26.9252 284.841 27.0012 284.444 27.1394C284.055 27.2845 283.791 27.5401 283.658 27.8994C283.526 28.2586 283.464 28.8321 283.464 29.6128V49.6004C283.464 50.4986 283.554 51.148 283.728 51.5487C283.902 51.9563 284.25 52.2258 284.778 52.3709C285.3 52.516 286.134 52.5851 287.268 52.5851C287.352 52.5851 287.4 52.668 287.4 52.8476C287.4 53.0272 287.358 53.1101 287.268 53.1101C286.253 53.1101 285.446 53.0963 284.869 53.0687L281.287 53.0272L277.879 53.0687C277.267 53.0963 276.425 53.1101 275.347 53.1101C275.292 53.1101 275.257 53.0203 275.257 52.8476C275.257 52.6749 275.285 52.5851 275.347 52.5851C276.481 52.5851 277.315 52.516 277.858 52.3709C278.393 52.2258 278.762 51.9425 278.95 51.528C279.138 51.1065 279.235 50.464 279.235 49.6004V29.523C279.235 28.7699 279.165 28.2241 279.019 27.8717C278.873 27.5263 278.609 27.2776 278.233 27.1325C277.858 26.9874 277.274 26.9183 276.488 26.9183C274.714 26.9183 273.247 27.4641 272.099 28.5419H272.113Z" fill="#010101"/>
<path d="M333.342 52.8475C333.342 53.0202 333.3 53.1101 333.21 53.1101C332.222 53.1101 331.423 53.0962 330.81 53.0686L327.625 53.0272L323.918 53.0686C323.396 53.0962 322.694 53.1101 321.825 53.1101C321.734 53.1101 321.692 53.0202 321.692 52.8475C321.692 52.6748 321.734 52.585 321.825 52.585C322.93 52.585 323.73 52.5159 324.224 52.3708C324.718 52.2257 325.052 51.9494 325.226 51.5486C325.399 51.1479 325.49 50.4916 325.49 49.6003V39.5823H310.516V49.6003C310.516 50.4639 310.599 51.1134 310.78 51.5279C310.954 51.9494 311.295 52.2257 311.809 52.3708C312.317 52.5159 313.124 52.585 314.23 52.585C314.285 52.585 314.313 52.6679 314.313 52.8475C314.313 53.0272 314.285 53.1101 314.23 53.1101C313.242 53.1101 312.47 53.0962 311.914 53.0686L308.29 53.0272L305.105 53.0686C304.555 53.0962 303.783 53.1101 302.789 53.1101C302.733 53.1101 302.698 53.0202 302.698 52.8475C302.698 52.6748 302.726 52.585 302.789 52.585C303.839 52.585 304.604 52.5159 305.105 52.3708C305.598 52.2257 305.932 51.9425 306.106 51.5279C306.28 51.1065 306.37 50.4639 306.37 49.6003V29.5229C306.37 28.6524 306.28 28.0167 306.106 27.616C305.932 27.2153 305.598 26.932 305.105 26.7731C304.611 26.6142 303.853 26.5382 302.837 26.5382C302.782 26.5382 302.747 26.4484 302.747 26.2757C302.747 26.103 302.775 26.0132 302.837 26.0132L305.153 26.0546C306.489 26.1099 307.539 26.1375 308.297 26.1375C309.312 26.1375 310.523 26.1099 311.921 26.0546L314.237 26.0132C314.292 26.0132 314.32 26.0961 314.32 26.2757C314.32 26.4553 314.292 26.5382 314.237 26.5382C313.159 26.5382 312.366 26.6211 311.858 26.8008C311.35 26.9735 310.996 27.2706 310.808 27.692C310.62 28.1135 310.523 28.756 310.523 29.6196V38.4631H325.497V29.6196C325.497 28.756 325.413 28.1066 325.233 27.692C325.059 27.2706 324.718 26.9735 324.203 26.8008C323.695 26.628 322.903 26.5382 321.825 26.5382C321.734 26.5382 321.692 26.4484 321.692 26.2757C321.692 26.103 321.734 26.0132 321.825 26.0132L323.918 26.0546C325.316 26.1099 326.554 26.1375 327.625 26.1375C328.411 26.1375 329.475 26.1099 330.81 26.0546L333.21 26.0132C333.3 26.0132 333.342 26.0961 333.342 26.2757C333.342 26.4553 333.3 26.5382 333.21 26.5382C332.16 26.5382 331.402 26.6211 330.922 26.7731C330.442 26.932 330.115 27.2153 329.941 27.616C329.767 28.0167 329.677 28.6593 329.677 29.5229V49.6003C329.677 50.4639 329.767 51.1134 329.941 51.5279C330.115 51.9494 330.442 52.2257 330.922 52.3708C331.402 52.5159 332.167 52.585 333.21 52.585C333.3 52.585 333.342 52.6679 333.342 52.8475Z" fill="#010101"/>
<path d="M362.323 46.2564C362.413 46.2564 362.49 46.2771 362.566 46.3186C362.636 46.36 362.677 46.4015 362.677 46.4291C362.385 48.6262 362.239 50.6367 362.239 52.4537C362.239 52.6817 362.198 52.8544 362.107 52.9512C362.017 53.0548 361.843 53.1032 361.585 53.1032H342.64C342.556 53.1032 342.508 53.0133 342.508 52.8406C342.508 52.6679 342.55 52.5781 342.64 52.5781C343.628 52.5781 344.351 52.509 344.803 52.3639C345.255 52.2188 345.561 51.9355 345.721 51.521C345.881 51.0996 345.964 50.457 345.964 49.5934V29.516C345.964 28.6455 345.881 28.0099 345.721 27.6091C345.561 27.2015 345.248 26.9251 344.782 26.7662C344.316 26.6073 343.6 26.5313 342.64 26.5313C342.556 26.5313 342.508 26.4415 342.508 26.2688C342.508 26.0961 342.55 26.0063 342.64 26.0063H360.8C361.092 26.0063 361.238 26.1375 361.238 26.3932L361.321 32.0309C361.321 32.0861 361.238 32.1345 361.085 32.1621C360.925 32.1898 360.827 32.1621 360.8 32.0792C360.104 28.7837 358.08 27.1324 354.735 27.1324H352.989C351.939 27.1324 351.202 27.319 350.763 27.6989C350.325 28.072 350.11 28.7077 350.11 29.6058V38.4493H354.304C357.503 38.4493 359.103 37.3784 359.103 35.2435C359.103 35.1606 359.186 35.1123 359.346 35.1123C359.506 35.1123 359.582 35.1537 359.582 35.2435L359.541 39.0158L359.582 41.054C359.638 41.9797 359.673 42.7328 359.673 43.3063C359.673 43.3615 359.582 43.3892 359.409 43.3892C359.235 43.3892 359.144 43.3615 359.144 43.3063C359.144 40.819 357.517 39.5754 354.255 39.5754H350.11V49.4207C350.11 50.3741 350.29 51.0374 350.652 51.4174C351.014 51.7905 351.661 51.9839 352.593 51.9839H354.735C358.637 51.9839 361.106 50.1047 362.156 46.3462C362.156 46.2909 362.211 46.2564 362.33 46.2564H362.323Z" fill="#010101"/>
<path d="M420.661 52.8475C420.661 53.0202 420.619 53.1101 420.528 53.1101H415.639L413.935 53.1515C413.525 53.1515 413.177 53.0686 412.885 52.889C412.593 52.7162 412.259 52.3984 411.883 51.9355C411.508 51.4726 410.805 50.5607 409.79 49.2065L408.002 46.8229L401.938 38.9329L400.846 40.0591V49.6003C400.846 50.4985 400.915 51.1479 401.061 51.5486C401.207 51.9563 401.506 52.2257 401.959 52.3708C402.411 52.5159 403.127 52.585 404.122 52.585C404.24 52.585 404.295 52.6679 404.295 52.8475C404.295 53.0272 404.24 53.1101 404.122 53.1101C403.19 53.1101 402.445 53.0962 401.896 53.0686L398.711 53.0272L395.609 53.0686C395.059 53.0962 394.287 53.1101 393.293 53.1101C393.237 53.1101 393.202 53.0202 393.202 52.8475C393.202 52.6748 393.23 52.585 393.293 52.585C394.28 52.585 395.003 52.5159 395.456 52.3708C395.908 52.2257 396.221 51.9424 396.394 51.5279C396.568 51.1065 396.659 50.4639 396.659 49.6003V29.5229C396.659 28.6524 396.575 28.0167 396.422 27.616C396.262 27.2084 395.949 26.932 395.483 26.7731C395.017 26.6142 394.308 26.5382 393.341 26.5382C393.286 26.5382 393.251 26.4484 393.251 26.2757C393.251 26.103 393.279 26.0132 393.341 26.0132L395.657 26.0546C396.937 26.1099 397.959 26.1375 398.711 26.1375C399.587 26.1375 400.658 26.1099 401.938 26.0546L404.122 26.0132C404.205 26.0132 404.254 26.0961 404.254 26.2757C404.254 26.4553 404.212 26.5382 404.122 26.5382C403.162 26.5382 402.452 26.6211 402.007 26.8008C401.555 26.9735 401.249 27.2706 401.089 27.692C400.929 28.1135 400.846 28.756 400.846 29.6196V38.7671L409.4 30.1793C410.305 29.2811 410.757 28.528 410.757 27.9269C410.757 27.4917 410.527 27.1531 410.082 26.9113C409.63 26.6695 408.969 26.5451 408.093 26.5451C408.037 26.5451 408.009 26.4553 408.009 26.2826C408.009 26.1099 408.037 26.0201 408.093 26.0201L410.061 26.0615C411.341 26.1168 412.502 26.1444 413.553 26.1444C414.686 26.1444 415.834 26.1168 417.002 26.0615L418.88 26.0201C418.971 26.0201 419.012 26.103 419.012 26.2826C419.012 26.4622 418.971 26.5451 418.88 26.5451C417.6 26.5451 416.195 26.8906 414.665 27.5884C413.135 28.2793 411.744 29.2396 410.499 30.4487L404.914 35.9966L411.334 44.4531C413.316 47.1407 414.804 49.0407 415.806 50.153C416.808 51.2654 417.6 51.9563 418.185 52.2119C418.769 52.4744 419.555 52.6057 420.542 52.6057C420.633 52.6057 420.675 52.6886 420.675 52.8682L420.661 52.8475Z" fill="#010101"/>
<path d="M457.937 26.262C457.937 26.4347 457.909 26.5245 457.853 26.5245C456.692 26.5245 455.788 26.939 455.148 27.7612C454.508 28.5834 454.188 29.7648 454.188 31.2986V53.7181C454.188 53.801 454.119 53.8632 453.973 53.8908C453.826 53.9185 453.722 53.9047 453.667 53.8494L433.191 30.2139V47.8593C433.191 49.3931 433.497 50.5607 434.109 51.3691C434.721 52.1774 435.604 52.5851 436.773 52.5851C436.828 52.5851 436.863 52.668 436.863 52.8476C436.863 53.0272 436.835 53.1101 436.773 53.1101C435.987 53.1101 435.389 53.0963 434.985 53.0687L432.669 53.0272L430.096 53.0687C429.63 53.0963 428.962 53.1101 428.086 53.1101C428.002 53.1101 427.954 53.0203 427.954 52.8476C427.954 52.6749 427.995 52.5851 428.086 52.5851C429.338 52.5851 430.305 52.1774 430.986 51.3691C431.668 50.5607 432.016 49.3862 432.016 47.8593V28.8666C431.202 28.003 430.465 27.395 429.811 27.0427C429.157 26.6903 428.482 26.5245 427.78 26.5245C427.724 26.5245 427.689 26.4347 427.689 26.262C427.689 26.0892 427.717 25.9994 427.78 25.9994L429.526 26.0409C429.901 26.0685 430.444 26.0823 431.139 26.0823L433.935 26.0409C434.283 26.0132 434.707 25.9994 435.201 25.9994C435.43 25.9994 435.604 26.0547 435.723 26.1721C435.841 26.2896 436.015 26.5176 436.244 26.863L437.294 28.2517L453.006 46.6364V31.2848C453.006 29.751 452.7 28.5765 452.088 27.7474C451.476 26.9252 450.606 26.5107 449.466 26.5107C449.41 26.5107 449.375 26.4209 449.375 26.2481C449.375 26.0754 449.403 25.9856 449.466 25.9856L451.253 26.027C452.185 26.0823 452.957 26.11 453.569 26.11C454.181 26.11 454.939 26.0823 455.927 26.027L457.847 25.9856C457.902 25.9856 457.93 26.0685 457.93 26.2481L457.937 26.262Z" fill="#010101"/>
<path d="M473.413 51.7421C471.306 50.4846 469.671 48.7781 468.524 46.6225C467.376 44.4669 466.799 42.1179 466.799 39.5754C466.799 36.5976 467.557 34.0482 469.066 31.9203C470.582 29.7923 472.523 28.1963 474.894 27.1255C477.266 26.0546 479.686 25.5226 482.162 25.5226C484.931 25.5226 487.358 26.1651 489.451 27.4502C491.545 28.7352 493.151 30.4348 494.278 32.5421C495.398 34.6562 495.961 36.8947 495.961 39.2645C495.961 41.8968 495.266 44.308 493.868 46.5051C492.47 48.7021 490.599 50.4363 488.255 51.7075C485.911 52.9788 483.373 53.6144 480.639 53.6144C477.906 53.6144 475.527 52.9857 473.413 51.7282V51.7421ZM486.815 51.1755C488.199 50.2359 489.291 48.8541 490.091 47.0371C490.891 45.2131 491.294 43.0506 491.294 40.5288C491.294 37.8689 490.849 35.4853 489.966 33.3712C489.076 31.2639 487.81 29.6127 486.169 28.4243C484.527 27.236 482.594 26.6487 480.382 26.6487C477.558 26.6487 475.367 27.6505 473.809 29.661C472.252 31.6716 471.473 34.4559 471.473 38.0071C471.473 40.7568 471.932 43.2371 472.85 45.4618C473.768 47.6865 475.034 49.4276 476.647 50.685C478.261 51.9424 480.09 52.5711 482.128 52.5711C483.873 52.5711 485.438 52.1013 486.822 51.1617L486.815 51.1755Z" fill="#010101"/>
<path d="M543.625 26.262C543.625 26.4347 543.597 26.5245 543.542 26.5245C542.491 26.5245 541.532 26.9114 540.662 27.6921C539.786 28.4728 539.063 29.599 538.478 31.0775L530.007 53.0618C529.979 53.1792 529.819 53.2345 529.527 53.2345C529.235 53.2345 529.075 53.1792 529.047 53.0618L523.414 41.0955L518.83 53.0618C518.803 53.1792 518.643 53.2345 518.35 53.2345C518.058 53.2345 517.898 53.1792 517.871 53.0618L506.826 29.599C506.214 28.3277 505.699 27.4987 505.275 27.1048C504.851 26.7179 504.218 26.5176 503.376 26.5176C503.286 26.5176 503.244 26.4278 503.244 26.255C503.244 26.0823 503.286 25.9925 503.376 25.9925L504.51 26.034C505.15 26.0892 505.88 26.1169 506.694 26.1169C508.321 26.1169 509.81 26.0892 511.145 26.034C511.548 26.0063 512.063 25.9925 512.675 25.9925C512.766 25.9925 512.807 26.0754 512.807 26.255C512.807 26.4347 512.766 26.5176 512.675 26.5176C511.889 26.5176 511.326 26.6005 510.992 26.7525C510.658 26.9114 510.491 27.2085 510.491 27.6437C510.491 28.1343 510.756 28.9426 511.277 30.0688L519.616 47.7142L522.76 39.6515L518.003 29.5921C517.481 28.5212 516.994 27.7405 516.542 27.2499C516.09 26.7594 515.562 26.5107 514.949 26.5107C514.866 26.5107 514.817 26.4209 514.817 26.2481C514.817 26.0754 514.859 25.9856 514.949 25.9856L516 26.027C516.64 26.0823 517.279 26.11 517.919 26.11C519.289 26.11 520.493 26.0823 521.543 26.027C521.835 25.9994 522.211 25.9856 522.677 25.9856C522.767 25.9856 522.809 26.0685 522.809 26.2481C522.809 26.4278 522.767 26.5107 522.677 26.5107C522.211 26.5107 521.884 26.559 521.696 26.6627C521.508 26.7663 521.411 26.9459 521.411 27.2016C521.411 27.6645 521.758 28.6179 522.461 30.0619L524.819 35.0087L526.391 30.8909C526.912 29.5299 527.176 28.5074 527.176 27.8096C527.176 26.9459 526.738 26.5107 525.869 26.5107C525.785 26.5107 525.737 26.4209 525.737 26.2481C525.737 26.0754 525.778 25.9856 525.869 25.9856C526.133 25.9856 526.439 26.0063 526.787 26.0478C527.135 26.0892 527.775 26.11 528.707 26.11C529.228 26.11 529.84 26.0823 530.543 26.027L532.247 25.9856C532.302 25.9856 532.33 26.0685 532.33 26.2481C532.33 26.4278 532.302 26.5107 532.247 26.5107C531.259 26.5107 530.383 26.8699 529.625 27.5954C528.866 28.3208 528.185 29.4746 527.573 31.0637L525.479 36.4388L530.849 47.7142L537.22 31.1949C537.512 30.4419 537.658 29.7372 537.658 29.067C537.658 28.2586 537.421 27.6299 536.934 27.1808C536.454 26.7318 535.78 26.5107 534.903 26.5107C534.82 26.5107 534.771 26.4209 534.771 26.2481C534.771 26.0754 534.813 25.9856 534.903 25.9856L536.823 26.027C537.873 26.0823 538.819 26.11 539.661 26.11C540.245 26.11 540.913 26.0823 541.671 26.027L543.549 25.9856C543.604 25.9856 543.632 26.0685 543.632 26.2481L543.625 26.262Z" fill="#010101"/>
<path d="M558.384 49.4207C558.384 50.2014 558.447 50.7679 558.579 51.1134C558.711 51.4588 558.961 51.6937 559.344 51.8043C559.719 51.9217 560.331 51.977 561.18 51.977H563.802C565.868 51.977 567.613 51.4036 569.039 50.2636C570.465 49.1236 571.411 47.5829 571.877 45.6484C571.905 45.5655 571.995 45.524 572.141 45.5379C572.287 45.5517 572.357 45.6 572.357 45.6899C572.092 48.4051 571.96 50.6643 571.96 52.4537C571.96 52.6817 571.918 52.8544 571.828 52.9512C571.745 53.0548 571.564 53.1032 571.306 53.1032H550.879C550.824 53.1032 550.789 53.0133 550.789 52.8406C550.789 52.6679 550.817 52.5781 550.879 52.5781C551.867 52.5781 552.59 52.509 553.043 52.3639C553.495 52.2188 553.801 51.9355 553.961 51.521C554.121 51.0996 554.197 50.457 554.197 49.5934V29.516C554.197 28.6455 554.114 28.0099 553.961 27.6091C553.801 27.2015 553.488 26.9251 553.022 26.7662C552.556 26.6073 551.846 26.5313 550.879 26.5313C550.824 26.5313 550.789 26.4415 550.789 26.2688C550.789 26.0961 550.817 26.0063 550.879 26.0063L553.105 26.0477C554.385 26.103 555.435 26.1306 556.249 26.1306C557.118 26.1306 558.196 26.103 559.476 26.0477L561.66 26.0063C561.75 26.0063 561.792 26.0892 561.792 26.2688C561.792 26.4484 561.75 26.5313 561.66 26.5313C560.7 26.5313 559.991 26.6142 559.545 26.7662C559.093 26.9251 558.787 27.2153 558.627 27.6368C558.467 28.0582 558.384 28.7007 558.384 29.5644V49.4276V49.4207Z" fill="#010101"/>
<path d="M600.765 46.2564C600.855 46.2564 600.932 46.2771 601.008 46.3186C601.078 46.36 601.12 46.4015 601.12 46.4291C600.828 48.6262 600.682 50.6367 600.682 52.4537C600.682 52.6817 600.64 52.8544 600.549 52.9512C600.459 53.0548 600.285 53.1032 600.028 53.1032H581.082C580.999 53.1032 580.95 53.0133 580.95 52.8406C580.95 52.6679 580.992 52.5781 581.082 52.5781C582.07 52.5781 582.793 52.509 583.245 52.3639C583.697 52.2188 584.003 51.9355 584.163 51.521C584.323 51.0996 584.407 50.457 584.407 49.5934V29.516C584.407 28.6455 584.323 28.0099 584.163 27.6091C584.003 27.2015 583.69 26.9251 583.224 26.7662C582.758 26.6073 582.042 26.5313 581.082 26.5313C580.999 26.5313 580.95 26.4415 580.95 26.2688C580.95 26.0961 580.992 26.0063 581.082 26.0063H599.242C599.534 26.0063 599.68 26.1375 599.68 26.3932L599.764 32.0309C599.764 32.0861 599.68 32.1345 599.527 32.1621C599.367 32.1898 599.27 32.1621 599.242 32.0792C598.546 28.7837 596.522 27.1324 593.177 27.1324H591.431C590.381 27.1324 589.644 27.319 589.206 27.6989C588.768 28.072 588.552 28.7077 588.552 29.6058V38.4493H592.746C595.945 38.4493 597.545 37.3784 597.545 35.2435C597.545 35.1606 597.628 35.1123 597.788 35.1123C597.948 35.1123 598.025 35.1537 598.025 35.2435L597.983 39.0158L598.025 41.054C598.08 41.9797 598.115 42.7328 598.115 43.3063C598.115 43.3615 598.025 43.3892 597.851 43.3892C597.677 43.3892 597.587 43.3615 597.587 43.3063C597.587 40.819 595.959 39.5754 592.697 39.5754H588.552V49.4207C588.552 50.3741 588.733 51.0374 589.095 51.4174C589.456 51.7905 590.103 51.9839 591.035 51.9839H593.177C597.079 51.9839 599.548 50.1047 600.598 46.3462C600.598 46.2909 600.654 46.2564 600.772 46.2564H600.765Z" fill="#010101"/>
<path d="M620.013 53.1516C619.575 53.1239 619.026 53.0963 618.351 53.0686C617.683 53.041 616.925 53.0272 616.084 53.0272L612.982 53.0686C612.432 53.0963 611.66 53.1101 610.666 53.1101C610.61 53.1101 610.575 53.0203 610.575 52.8476C610.575 52.6748 610.603 52.585 610.666 52.585C611.653 52.585 612.377 52.5159 612.829 52.3708C613.281 52.2258 613.594 51.9425 613.768 51.528C613.941 51.1065 614.032 50.464 614.032 49.6004V29.5229C614.032 28.6524 613.948 28.0168 613.795 27.6161C613.635 27.2084 613.322 26.9321 612.856 26.7732C612.39 26.6143 611.681 26.5383 610.714 26.5383C610.659 26.5383 610.624 26.4485 610.624 26.2757C610.624 26.103 610.652 26.0132 610.714 26.0132L613.03 26.0547C614.31 26.1099 615.332 26.1376 616.084 26.1376C617.245 26.1376 618.427 26.0961 619.617 26.0063C621.07 25.951 622.044 25.9165 622.545 25.9165C625.515 25.9165 628.144 26.4968 630.446 27.6506C632.741 28.8044 634.528 30.3797 635.794 32.3763C637.06 34.373 637.693 36.6115 637.693 39.0988C637.693 41.9038 637.039 44.3841 635.732 46.5328C634.424 48.6815 632.657 50.3465 630.453 51.521C628.241 52.6887 625.814 53.2759 623.164 53.2759C622.26 53.2759 621.216 53.2345 620.02 53.1446L620.013 53.1516ZM628.067 50.9821C629.625 50.0287 630.842 48.6193 631.712 46.7539C632.581 44.8885 633.019 42.6569 633.019 40.0522C633.019 37.4475 632.602 35.3196 631.774 33.3091C630.946 31.2985 629.771 29.7095 628.262 28.5419C626.746 27.3743 624.986 26.787 622.983 26.787C621.759 26.787 620.813 26.863 620.145 27.0012C619.478 27.1463 618.991 27.4157 618.685 27.8026C618.379 28.1895 618.226 28.7906 618.226 29.5989V49.1098C618.226 50.2982 618.532 51.1411 619.144 51.6454C619.756 52.1498 620.945 52.4054 622.726 52.4054C624.736 52.4054 626.516 51.9287 628.074 50.9752L628.067 50.9821Z" fill="#010101"/>
<path d="M655.616 51.7629C653.189 50.5192 651.332 48.8335 650.052 46.7124C648.773 44.5845 648.133 42.2216 648.133 39.6238C648.133 36.8464 648.863 34.3938 650.317 32.252C651.77 30.1102 653.78 28.459 656.34 27.2844C658.899 26.1099 661.765 25.5296 664.936 25.5296C666.39 25.5296 667.809 25.647 669.193 25.875C670.577 26.103 671.703 26.4416 672.573 26.8699C672.837 26.9874 672.99 27.0841 673.032 27.1739C673.074 27.2568 673.108 27.4917 673.143 27.8648L673.713 33.5923C673.713 33.6821 673.63 33.7374 673.47 33.765C673.31 33.7927 673.213 33.7512 673.185 33.6338C672.573 31.8098 671.453 30.1448 669.826 28.6248C668.198 27.1048 666.098 26.3517 663.538 26.3517C661.528 26.3517 659.706 26.8561 658.058 27.8717C656.416 28.8873 655.116 30.3382 654.17 32.2313C653.224 34.1243 652.751 36.3144 652.751 38.8017C652.751 41.434 653.266 43.8245 654.302 45.9801C655.331 48.1357 656.806 49.8353 658.711 51.0789C660.617 52.3225 662.808 52.9443 665.284 52.9443C666.536 52.9443 667.51 52.7992 668.212 52.509C668.907 52.2189 669.422 51.7007 669.742 50.9476C670.062 50.1945 670.222 49.096 670.222 47.652C670.222 46.2081 670.139 45.1026 669.958 44.5085C669.784 43.9143 669.394 43.5205 668.803 43.3132C668.212 43.1059 667.169 43.0092 665.68 43.0092C665.506 43.0092 665.416 42.8918 665.416 42.6638C665.416 42.574 665.437 42.498 665.479 42.422C665.52 42.3529 665.569 42.3114 665.632 42.3114C668.045 42.4565 669.979 42.5256 671.439 42.5256C672.9 42.5256 674.409 42.4841 675.981 42.3943C676.036 42.3943 676.092 42.4289 676.134 42.5049C676.176 42.574 676.196 42.643 676.196 42.6983C676.196 42.8987 676.127 43.0023 675.981 43.0023C675.397 42.9747 674.993 43.0645 674.757 43.2856C674.527 43.4998 674.374 43.9419 674.298 44.6052C674.228 45.2684 674.186 46.4292 674.186 48.0735C674.186 49.3724 674.235 50.2982 674.339 50.8509C674.444 51.3967 674.492 51.749 674.492 51.8941C674.492 52.0669 674.465 52.1843 674.402 52.2396C674.346 52.2948 674.214 52.357 674.013 52.4123C670.347 53.2206 667.071 53.6283 664.192 53.6283C660.902 53.6283 658.044 53.0065 655.616 51.7629Z" fill="#010101"/>
<path d="M705.309 46.2564C705.399 46.2564 705.476 46.2771 705.552 46.3186C705.622 46.36 705.664 46.4015 705.664 46.4291C705.372 48.6262 705.226 50.6367 705.226 52.4537C705.226 52.6817 705.184 52.8544 705.093 52.9512C705.003 53.0548 704.829 53.1032 704.572 53.1032H685.626C685.543 53.1032 685.494 53.0133 685.494 52.8406C685.494 52.6679 685.536 52.5781 685.626 52.5781C686.614 52.5781 687.337 52.509 687.789 52.3639C688.241 52.2188 688.547 51.9355 688.707 51.521C688.867 51.0996 688.951 50.457 688.951 49.5934V29.516C688.951 28.6455 688.867 28.0099 688.707 27.6091C688.547 27.2015 688.234 26.9251 687.768 26.7662C687.302 26.6073 686.586 26.5313 685.626 26.5313C685.543 26.5313 685.494 26.4415 685.494 26.2688C685.494 26.0961 685.536 26.0063 685.626 26.0063H703.786C704.078 26.0063 704.224 26.1375 704.224 26.3932L704.308 32.0309C704.308 32.0861 704.224 32.1345 704.071 32.1621C703.911 32.1898 703.814 32.1621 703.786 32.0792C703.09 28.7837 701.066 27.1324 697.721 27.1324H695.975C694.925 27.1324 694.188 27.319 693.75 27.6989C693.312 28.072 693.096 28.7077 693.096 29.6058V38.4493H697.29C700.489 38.4493 702.089 37.3784 702.089 35.2435C702.089 35.1606 702.172 35.1123 702.332 35.1123C702.492 35.1123 702.569 35.1537 702.569 35.2435L702.527 39.0158L702.569 41.054C702.624 41.9797 702.659 42.7328 702.659 43.3063C702.659 43.3615 702.569 43.3892 702.395 43.3892C702.221 43.3892 702.131 43.3615 702.131 43.3063C702.131 40.819 700.503 39.5754 697.241 39.5754H693.096V49.4207C693.096 50.3741 693.277 51.0374 693.638 51.4174C694 51.7905 694.647 51.9839 695.579 51.9839H697.721C701.623 51.9839 704.092 50.1047 705.142 46.3462C705.142 46.2909 705.198 46.2564 705.316 46.2564H705.309Z" fill="#010101"/>
<path d="M749.961 167.495H225.002C224.411 167.495 223.924 167.26 223.924 166.963C223.924 166.666 224.404 166.431 225.002 166.431H749.961C750.552 166.431 751.039 166.666 751.039 166.963C751.039 167.26 750.559 167.495 749.961 167.495Z" fill="#010101"/>
<path d="M280.611 197.086C280.667 197.086 280.715 197.1 280.757 197.127C280.799 197.155 280.827 197.176 280.827 197.196C280.653 198.647 280.562 199.967 280.562 201.155C280.562 201.307 280.535 201.411 280.479 201.473C280.423 201.535 280.319 201.57 280.159 201.57H268.384C268.328 201.57 268.308 201.514 268.308 201.404C268.308 201.293 268.335 201.238 268.384 201.238C268.954 201.238 269.365 201.19 269.622 201.1C269.879 201.01 270.053 200.824 270.144 200.554C270.234 200.285 270.276 199.87 270.276 199.31V186.398C270.276 185.838 270.234 185.43 270.144 185.168C270.053 184.905 269.879 184.726 269.608 184.622C269.344 184.518 268.934 184.47 268.384 184.47C268.328 184.47 268.308 184.415 268.308 184.304C268.308 184.194 268.335 184.138 268.384 184.138H279.679C279.86 184.138 279.943 184.221 279.943 184.387L279.999 188.097C279.999 188.132 279.95 188.159 279.853 188.18C279.756 188.201 279.7 188.18 279.679 188.125C279.394 187.047 278.914 186.246 278.239 185.727C277.565 185.209 276.675 184.947 275.576 184.947H274.776C274.24 184.947 273.851 185.064 273.6 185.306C273.35 185.548 273.225 185.921 273.225 186.418V192.111H275.437C276.466 192.111 277.259 191.925 277.808 191.552C278.358 191.179 278.636 190.66 278.636 189.99C278.636 189.935 278.685 189.907 278.782 189.907C278.879 189.907 278.928 189.935 278.928 189.99L278.9 192.498L278.928 193.839C278.963 194.474 278.984 194.972 278.984 195.345C278.984 195.379 278.928 195.4 278.824 195.4C278.719 195.4 278.664 195.379 278.664 195.345C278.664 194.585 278.385 193.984 277.822 193.548C277.266 193.113 276.459 192.892 275.409 192.892H273.225V199.193C273.225 199.732 273.322 200.133 273.517 200.395C273.712 200.658 274.025 200.789 274.449 200.789H275.325C276.709 200.789 277.822 200.492 278.657 199.898C279.491 199.304 280.103 198.385 280.493 197.134C280.493 197.1 280.528 197.079 280.597 197.079L280.611 197.086Z" fill="#010101"/>
<path d="M299.238 201.411C299.238 201.521 299.21 201.577 299.154 201.577C298.64 201.577 298.236 201.57 297.958 201.549L296.358 201.521L294.174 201.549C293.834 201.57 293.368 201.577 292.763 201.577C292.707 201.577 292.686 201.521 292.686 201.411C292.686 201.3 292.714 201.245 292.763 201.245C293.347 201.245 293.639 201.086 293.639 200.768C293.639 200.602 293.555 200.395 293.402 200.153L289.751 194.239L287.463 197.666C286.767 198.689 286.426 199.518 286.426 200.146C286.426 200.872 286.886 201.231 287.811 201.231C287.845 201.231 287.866 201.286 287.866 201.397C287.866 201.508 287.845 201.563 287.811 201.563C287.226 201.563 286.781 201.556 286.475 201.535L284.507 201.508L283.255 201.535C283.025 201.556 282.65 201.563 282.135 201.563C282.08 201.563 282.052 201.508 282.052 201.397C282.052 201.286 282.08 201.231 282.135 201.231C282.685 201.231 283.359 200.927 284.159 200.312C284.959 199.697 285.794 198.758 286.663 197.493L289.382 193.645L285.119 186.702C284.639 185.9 284.18 185.334 283.735 184.988C283.29 184.643 282.817 184.47 282.323 184.47C282.267 184.47 282.24 184.415 282.24 184.304C282.24 184.194 282.267 184.138 282.323 184.138L283.471 184.166C283.964 184.201 284.34 184.221 284.59 184.221C285.209 184.221 285.981 184.201 286.906 184.166L288.423 184.138C288.457 184.138 288.478 184.194 288.478 184.304C288.478 184.415 288.457 184.47 288.423 184.47C287.817 184.47 287.518 184.629 287.518 184.947C287.518 185.099 287.602 185.306 287.755 185.589L291.274 191.255L293.402 188.077C294.098 187.033 294.439 186.197 294.439 185.569C294.439 184.843 293.98 184.484 293.055 184.484C293.02 184.484 292.999 184.429 292.999 184.318C292.999 184.207 293.013 184.152 293.055 184.152L294.39 184.18C295.099 184.214 295.76 184.235 296.358 184.235C296.734 184.235 297.151 184.214 297.61 184.18L298.73 184.152C298.786 184.152 298.806 184.207 298.806 184.318C298.806 184.429 298.779 184.484 298.73 184.484C298.16 184.484 297.485 184.795 296.692 185.417C295.899 186.038 295.065 186.985 294.174 188.249L291.643 191.876L296.198 199.269C296.643 199.96 297.095 200.457 297.555 200.775C298.014 201.093 298.549 201.252 299.154 201.252C299.21 201.252 299.238 201.307 299.238 201.418V201.411Z" fill="#010101"/>
<path d="M305.173 200.506C305.298 200.775 305.534 200.969 305.882 201.079C306.23 201.19 306.786 201.245 307.544 201.245C307.6 201.245 307.628 201.3 307.628 201.411C307.628 201.521 307.6 201.577 307.544 201.577C306.814 201.577 306.251 201.57 305.84 201.549L303.524 201.521L301.577 201.549C301.222 201.57 300.742 201.577 300.137 201.577C300.082 201.577 300.054 201.521 300.054 201.411C300.054 201.3 300.082 201.245 300.137 201.245C300.707 201.245 301.118 201.197 301.375 201.107C301.632 201.017 301.806 200.83 301.897 200.561C301.987 200.292 302.029 199.877 302.029 199.317V186.405C302.029 185.845 301.987 185.437 301.897 185.175C301.806 184.912 301.633 184.733 301.361 184.629C301.097 184.525 300.687 184.477 300.137 184.477C300.082 184.477 300.054 184.422 300.054 184.311C300.054 184.201 300.082 184.145 300.137 184.145L301.549 184.173C302.363 184.207 303.017 184.228 303.496 184.228C303.921 184.228 304.428 184.201 305.013 184.145C305.242 184.125 305.534 184.111 305.889 184.09C306.244 184.069 306.654 184.062 307.113 184.062C308.921 184.062 310.354 184.456 311.404 185.251C312.455 186.038 312.976 187.261 312.976 188.919C312.976 190.073 312.691 191.047 312.121 191.849C311.55 192.65 310.82 193.251 309.923 193.659C309.026 194.067 308.108 194.274 307.169 194.274C306.689 194.274 306.272 194.225 305.917 194.136C305.882 194.136 305.861 194.087 305.861 193.997C305.861 193.942 305.875 193.887 305.903 193.832C305.931 193.776 305.959 193.756 305.993 193.776C306.258 193.852 306.564 193.887 306.897 193.887C307.711 193.887 308.393 193.486 308.935 192.685C309.478 191.883 309.749 190.75 309.749 189.286C309.749 187.821 309.45 186.681 308.859 185.886C308.268 185.092 307.398 184.684 306.258 184.684C305.764 184.684 305.423 184.809 305.242 185.05C305.061 185.292 304.978 185.769 304.978 186.474V199.221C304.978 199.815 305.04 200.25 305.166 200.52L305.173 200.506Z" fill="#010101"/>
<path d="M319.645 199.207C319.645 199.69 319.68 200.043 319.749 200.25C319.819 200.464 319.958 200.609 320.16 200.678C320.361 200.754 320.695 200.789 321.161 200.789H322.065C323.449 200.789 324.653 200.402 325.661 199.628C326.677 198.854 327.351 197.811 327.685 196.492C327.685 196.457 327.72 196.436 327.789 196.436C327.824 196.436 327.866 196.45 327.908 196.478C327.949 196.505 327.977 196.526 327.977 196.547C327.817 198.391 327.741 199.918 327.741 201.148C327.741 201.3 327.713 201.404 327.65 201.466C327.588 201.528 327.483 201.563 327.344 201.563H314.769C314.735 201.563 314.714 201.507 314.714 201.397C314.714 201.286 314.735 201.231 314.769 201.231C315.34 201.231 315.75 201.183 316.007 201.093C316.265 201.003 316.446 200.817 316.543 200.547C316.64 200.278 316.689 199.863 316.689 199.303V186.391C316.689 185.831 316.64 185.423 316.543 185.161C316.446 184.898 316.265 184.719 315.994 184.615C315.729 184.511 315.319 184.463 314.769 184.463C314.735 184.463 314.714 184.408 314.714 184.297C314.714 184.187 314.735 184.131 314.769 184.131L316.126 184.159C316.939 184.194 317.614 184.214 318.15 184.214C318.685 184.214 319.36 184.194 320.174 184.159L321.53 184.131C321.585 184.131 321.613 184.187 321.613 184.297C321.613 184.408 321.585 184.463 321.53 184.463C320.98 184.463 320.57 184.511 320.306 184.615C320.041 184.719 319.861 184.905 319.77 185.175C319.68 185.444 319.638 185.859 319.638 186.418V199.193L319.645 199.207Z" fill="#010101"/>
<path d="M333.83 200.699C332.543 199.891 331.549 198.792 330.846 197.41C330.144 196.029 329.796 194.516 329.796 192.878C329.796 190.964 330.255 189.32 331.18 187.959C332.105 186.591 333.287 185.569 334.734 184.878C336.181 184.187 337.662 183.848 339.171 183.848C340.861 183.848 342.343 184.263 343.622 185.092C344.902 185.921 345.883 187.012 346.564 188.367C347.246 189.721 347.587 191.165 347.587 192.692C347.587 194.384 347.163 195.939 346.307 197.348C345.452 198.758 344.311 199.877 342.885 200.692C341.453 201.507 339.909 201.922 338.239 201.922C336.57 201.922 335.116 201.521 333.83 200.706V200.699ZM341.8 200.312C342.593 199.711 343.205 198.827 343.65 197.666C344.095 196.505 344.318 195.117 344.318 193.5C344.318 191.787 344.068 190.26 343.574 188.912C343.073 187.565 342.357 186.508 341.418 185.748C340.479 184.988 339.373 184.601 338.114 184.601C336.501 184.601 335.256 185.237 334.386 186.515C333.517 187.786 333.079 189.569 333.079 191.856C333.079 193.659 333.343 195.269 333.865 196.692C334.386 198.115 335.11 199.228 336.021 200.022C336.939 200.823 337.968 201.224 339.123 201.224C340.117 201.224 341.007 200.92 341.8 200.319V200.312Z" fill="#010101"/>
<path d="M367.821 201.411C367.821 201.521 367.8 201.577 367.766 201.577H363.022C362.633 201.577 361.903 200.837 360.838 199.359C359.774 197.88 358.488 195.815 356.971 193.155C356.832 193.175 356.624 193.182 356.359 193.182C355.664 193.182 355.177 193.175 354.892 193.155V199.317C354.892 199.891 354.934 200.312 355.024 200.575C355.114 200.837 355.288 201.01 355.546 201.107C355.803 201.203 356.213 201.245 356.784 201.245C356.818 201.245 356.839 201.3 356.839 201.411C356.839 201.521 356.818 201.577 356.784 201.577C356.199 201.577 355.733 201.57 355.4 201.549L353.376 201.521L351.428 201.549C351.074 201.57 350.594 201.577 349.989 201.577C349.933 201.577 349.912 201.521 349.912 201.411C349.912 201.3 349.94 201.245 349.989 201.245C350.559 201.245 350.969 201.197 351.227 201.107C351.484 201.017 351.658 200.83 351.762 200.561C351.86 200.292 351.908 199.877 351.908 199.317V186.405C351.908 185.845 351.866 185.437 351.776 185.175C351.686 184.912 351.512 184.733 351.241 184.629C350.976 184.525 350.566 184.477 350.016 184.477C349.982 184.477 349.961 184.422 349.961 184.311C349.961 184.201 349.982 184.145 350.016 184.145L351.428 184.173C352.242 184.207 352.896 184.228 353.376 184.228C353.981 184.228 354.614 184.201 355.267 184.145C355.497 184.125 355.789 184.111 356.137 184.09C356.485 184.069 356.867 184.062 357.298 184.062C358.912 184.062 360.164 184.373 361.054 184.995C361.944 185.617 362.389 186.487 362.389 187.6C362.389 188.622 362.125 189.548 361.59 190.377C361.054 191.206 360.345 191.869 359.461 192.374C360.88 194.605 362.07 196.353 363.029 197.618C363.989 198.882 364.845 199.801 365.589 200.381C366.333 200.955 367.063 201.245 367.773 201.245C367.807 201.245 367.828 201.3 367.828 201.411H367.821ZM356.443 192.484C357.472 192.484 358.216 192.18 358.668 191.579C359.121 190.978 359.35 190.004 359.35 188.664C359.35 187.137 359.134 186.087 358.71 185.513C358.286 184.94 357.674 184.65 356.874 184.65C356.165 184.65 355.657 184.788 355.358 185.071C355.059 185.354 354.906 185.817 354.906 186.467V192.381C355.33 192.457 355.845 192.491 356.45 192.491L356.443 192.484Z" fill="#010101"/>
<path d="M380.818 197.086C380.874 197.086 380.922 197.1 380.964 197.127C381.006 197.155 381.034 197.176 381.034 197.196C380.86 198.647 380.769 199.967 380.769 201.155C380.769 201.307 380.742 201.411 380.686 201.473C380.63 201.535 380.526 201.57 380.366 201.57H368.591C368.536 201.57 368.515 201.514 368.515 201.404C368.515 201.293 368.542 201.238 368.591 201.238C369.161 201.238 369.572 201.19 369.829 201.1C370.086 201.01 370.26 200.824 370.351 200.554C370.441 200.285 370.483 199.87 370.483 199.31V186.398C370.483 185.838 370.441 185.43 370.351 185.168C370.26 184.905 370.086 184.726 369.815 184.622C369.551 184.518 369.141 184.47 368.591 184.47C368.536 184.47 368.515 184.415 368.515 184.304C368.515 184.194 368.542 184.138 368.591 184.138H379.886C380.067 184.138 380.15 184.221 380.15 184.387L380.206 188.097C380.206 188.132 380.157 188.159 380.06 188.18C379.963 188.201 379.907 188.18 379.886 188.125C379.601 187.047 379.121 186.246 378.446 185.727C377.772 185.209 376.882 184.947 375.783 184.947H374.983C374.447 184.947 374.058 185.064 373.807 185.306C373.557 185.548 373.432 185.921 373.432 186.418V192.111H375.644C376.673 192.111 377.466 191.925 378.015 191.552C378.565 191.179 378.843 190.66 378.843 189.99C378.843 189.935 378.892 189.907 378.989 189.907C379.086 189.907 379.135 189.935 379.135 189.99L379.107 192.498L379.135 193.839C379.17 194.474 379.191 194.972 379.191 195.345C379.191 195.379 379.135 195.4 379.031 195.4C378.926 195.4 378.871 195.379 378.871 195.345C378.871 194.585 378.592 193.984 378.029 193.548C377.473 193.113 376.666 192.892 375.616 192.892H373.432V199.193C373.432 199.732 373.529 200.133 373.724 200.395C373.919 200.658 374.232 200.789 374.656 200.789H375.532C376.916 200.789 378.029 200.492 378.864 199.898C379.698 199.304 380.31 198.385 380.7 197.134C380.7 197.1 380.735 197.079 380.804 197.079L380.818 197.086Z" fill="#010101"/>
<path d="M469.998 197.086C470.053 197.086 470.102 197.1 470.144 197.127C470.186 197.155 470.213 197.176 470.213 197.196C470.04 198.647 469.949 199.967 469.949 201.155C469.949 201.307 469.921 201.411 469.866 201.473C469.81 201.535 469.706 201.57 469.546 201.57H457.771C457.715 201.57 457.694 201.514 457.694 201.404C457.694 201.293 457.722 201.238 457.771 201.238C458.341 201.238 458.752 201.19 459.009 201.1C459.266 201.01 459.44 200.824 459.53 200.554C459.621 200.285 459.663 199.87 459.663 199.31V186.398C459.663 185.838 459.621 185.43 459.53 185.168C459.44 184.905 459.266 184.726 458.995 184.622C458.731 184.518 458.32 184.47 457.771 184.47C457.715 184.47 457.694 184.415 457.694 184.304C457.694 184.194 457.722 184.138 457.771 184.138H469.066C469.247 184.138 469.33 184.221 469.33 184.387L469.386 188.097C469.386 188.132 469.337 188.159 469.24 188.18C469.142 188.201 469.087 188.18 469.066 188.125C468.781 187.047 468.301 186.246 467.626 185.727C466.952 185.209 466.061 184.947 464.962 184.947H464.163C463.627 184.947 463.237 185.064 462.987 185.306C462.737 185.548 462.612 185.921 462.612 186.418V192.111H464.823C465.853 192.111 466.645 191.925 467.195 191.552C467.744 191.179 468.023 190.66 468.023 189.99C468.023 189.935 468.071 189.907 468.169 189.907C468.266 189.907 468.315 189.935 468.315 189.99L468.287 192.498L468.315 193.839C468.349 194.474 468.37 194.972 468.37 195.345C468.37 195.379 468.315 195.4 468.21 195.4C468.106 195.4 468.05 195.379 468.05 195.345C468.05 194.585 467.772 193.984 467.209 193.548C466.652 193.113 465.846 192.892 464.795 192.892H462.612V199.193C462.612 199.732 462.709 200.133 462.904 200.395C463.098 200.658 463.411 200.789 463.836 200.789H464.712C466.096 200.789 467.209 200.492 468.043 199.898C468.878 199.304 469.49 198.385 469.88 197.134C469.88 197.1 469.914 197.079 469.984 197.079L469.998 197.086Z" fill="#010101"/>
<path d="M488.619 201.411C488.619 201.521 488.591 201.577 488.535 201.577C488.02 201.577 487.617 201.57 487.339 201.549L485.739 201.521L483.555 201.549C483.214 201.57 482.748 201.577 482.143 201.577C482.088 201.577 482.067 201.521 482.067 201.411C482.067 201.3 482.095 201.245 482.143 201.245C482.728 201.245 483.02 201.086 483.02 200.768C483.02 200.602 482.936 200.395 482.783 200.153L479.132 194.239L476.844 197.666C476.148 198.689 475.807 199.518 475.807 200.146C475.807 200.872 476.266 201.231 477.191 201.231C477.226 201.231 477.247 201.286 477.247 201.397C477.247 201.508 477.226 201.563 477.191 201.563C476.607 201.563 476.162 201.556 475.856 201.535L473.888 201.508L472.636 201.535C472.406 201.556 472.031 201.563 471.516 201.563C471.46 201.563 471.433 201.508 471.433 201.397C471.433 201.286 471.46 201.231 471.516 201.231C472.066 201.231 472.74 200.927 473.54 200.312C474.34 199.697 475.174 198.758 476.044 197.493L478.763 193.645L474.5 186.702C474.02 185.9 473.561 185.334 473.116 184.988C472.671 184.643 472.198 184.47 471.704 184.47C471.648 184.47 471.62 184.415 471.62 184.304C471.62 184.194 471.648 184.138 471.704 184.138L472.851 184.166C473.345 184.201 473.721 184.221 473.971 184.221C474.59 184.221 475.362 184.201 476.287 184.166L477.803 184.138C477.838 184.138 477.859 184.194 477.859 184.304C477.859 184.415 477.838 184.47 477.803 184.47C477.198 184.47 476.899 184.629 476.899 184.947C476.899 185.099 476.983 185.306 477.136 185.589L480.655 191.255L482.783 188.077C483.479 187.033 483.82 186.197 483.82 185.569C483.82 184.843 483.361 184.484 482.435 184.484C482.401 184.484 482.38 184.429 482.38 184.318C482.38 184.207 482.394 184.152 482.435 184.152L483.771 184.18C484.48 184.214 485.141 184.235 485.739 184.235C486.115 184.235 486.532 184.214 486.991 184.18L488.111 184.152C488.166 184.152 488.187 184.207 488.187 184.318C488.187 184.429 488.159 184.484 488.111 184.484C487.54 184.484 486.866 184.795 486.073 185.417C485.28 186.038 484.445 186.985 483.555 188.249L481.024 191.876L485.579 199.269C486.024 199.96 486.476 200.457 486.935 200.775C487.394 201.093 487.93 201.252 488.535 201.252C488.591 201.252 488.619 201.307 488.619 201.418V201.411Z" fill="#010101"/>
<path d="M501.939 184.049C502.801 184.187 503.49 184.366 504.005 184.594C504.165 184.65 504.269 184.719 504.311 184.802C504.352 184.885 504.387 185.03 504.401 185.237L504.749 189.113C504.749 189.168 504.707 189.203 504.617 189.223C504.526 189.244 504.464 189.217 504.429 189.141C503.935 187.614 503.219 186.446 502.301 185.638C501.376 184.829 500.27 184.422 498.969 184.422C497.759 184.422 496.681 184.76 495.735 185.437C494.782 186.114 494.038 187.089 493.496 188.353C492.953 189.617 492.682 191.096 492.682 192.788C492.682 194.481 492.96 196.001 493.523 197.293C494.08 198.585 494.859 199.58 495.839 200.278C496.827 200.976 497.954 201.321 499.233 201.321C500.513 201.321 501.487 200.976 502.321 200.278C503.156 199.58 503.949 198.433 504.693 196.83C504.714 196.775 504.763 196.754 504.853 196.775C504.943 196.796 504.985 196.83 504.985 196.885L504.582 200.34C504.547 200.561 504.512 200.706 504.478 200.775C504.443 200.837 504.345 200.913 504.185 200.982C502.551 201.597 500.896 201.901 499.226 201.901C497.328 201.901 495.624 201.528 494.121 200.775C492.619 200.022 491.444 198.965 490.588 197.611C489.733 196.257 489.309 194.709 489.309 192.982C489.309 191.255 489.747 189.638 490.63 188.256C491.513 186.874 492.717 185.79 494.254 185.009C495.791 184.228 497.502 183.834 499.386 183.834C500.221 183.834 501.07 183.904 501.932 184.042L501.939 184.049Z" fill="#010101"/>
<path d="M519.471 197.086C519.527 197.086 519.576 197.1 519.617 197.127C519.659 197.155 519.687 197.176 519.687 197.196C519.513 198.647 519.423 199.967 519.423 201.155C519.423 201.307 519.395 201.411 519.339 201.473C519.284 201.535 519.179 201.57 519.019 201.57H507.244C507.189 201.57 507.168 201.514 507.168 201.404C507.168 201.293 507.196 201.238 507.244 201.238C507.815 201.238 508.225 201.19 508.482 201.1C508.74 201.01 508.914 200.824 509.004 200.554C509.095 200.285 509.136 199.87 509.136 199.31V186.398C509.136 185.838 509.095 185.43 509.004 185.168C508.914 184.905 508.74 184.726 508.469 184.622C508.204 184.518 507.794 184.47 507.244 184.47C507.189 184.47 507.168 184.415 507.168 184.304C507.168 184.194 507.196 184.138 507.244 184.138H518.539C518.72 184.138 518.804 184.221 518.804 184.387L518.859 188.097C518.859 188.132 518.811 188.159 518.713 188.18C518.616 188.201 518.56 188.18 518.539 188.125C518.254 187.047 517.774 186.246 517.1 185.727C516.425 185.209 515.535 184.947 514.436 184.947H513.636C513.101 184.947 512.711 185.064 512.461 185.306C512.21 185.548 512.085 185.921 512.085 186.418V192.111H514.297C515.326 192.111 516.119 191.925 516.669 191.552C517.218 191.179 517.496 190.66 517.496 189.99C517.496 189.935 517.545 189.907 517.642 189.907C517.74 189.907 517.788 189.935 517.788 189.99L517.76 192.498L517.788 193.839C517.823 194.474 517.844 194.972 517.844 195.345C517.844 195.379 517.788 195.4 517.684 195.4C517.58 195.4 517.524 195.379 517.524 195.345C517.524 194.585 517.246 193.984 516.682 193.548C516.126 193.113 515.319 192.892 514.269 192.892H512.085V199.193C512.085 199.732 512.183 200.133 512.377 200.395C512.572 200.658 512.885 200.789 513.309 200.789H514.186C515.57 200.789 516.682 200.492 517.517 199.898C518.352 199.304 518.964 198.385 519.353 197.134C519.353 197.1 519.388 197.079 519.457 197.079L519.471 197.086Z" fill="#010101"/>
<path d="M526.539 199.207C526.539 199.69 526.574 200.043 526.644 200.25C526.713 200.464 526.852 200.609 527.054 200.678C527.256 200.754 527.59 200.789 528.056 200.789H528.96C530.344 200.789 531.547 200.402 532.556 199.628C533.571 198.854 534.246 197.811 534.58 196.492C534.58 196.457 534.614 196.436 534.684 196.436C534.719 196.436 534.76 196.45 534.802 196.478C534.844 196.505 534.872 196.526 534.872 196.547C534.712 198.392 534.635 199.918 534.635 201.148C534.635 201.3 534.607 201.404 534.545 201.466C534.482 201.528 534.378 201.563 534.239 201.563H521.664C521.629 201.563 521.608 201.508 521.608 201.397C521.608 201.286 521.629 201.231 521.664 201.231C522.234 201.231 522.645 201.183 522.902 201.093C523.159 201.003 523.34 200.817 523.438 200.547C523.535 200.278 523.584 199.863 523.584 199.304V186.391C523.584 185.831 523.535 185.423 523.438 185.161C523.34 184.898 523.159 184.719 522.888 184.615C522.624 184.512 522.213 184.463 521.664 184.463C521.629 184.463 521.608 184.408 521.608 184.297C521.608 184.187 521.629 184.132 521.664 184.132L523.02 184.159C523.834 184.194 524.509 184.214 525.044 184.214C525.58 184.214 526.254 184.194 527.068 184.159L528.424 184.132C528.48 184.132 528.508 184.187 528.508 184.297C528.508 184.408 528.48 184.463 528.424 184.463C527.875 184.463 527.465 184.512 527.2 184.615C526.936 184.719 526.755 184.905 526.665 185.175C526.574 185.444 526.533 185.859 526.533 186.418V199.193L526.539 199.207Z" fill="#010101"/>
<path d="M623.178 197.086C623.234 197.086 623.283 197.1 623.325 197.127C623.366 197.155 623.394 197.176 623.394 197.196C623.22 198.647 623.13 199.967 623.13 201.155C623.13 201.307 623.102 201.411 623.046 201.473C622.991 201.535 622.886 201.57 622.726 201.57H610.951C610.896 201.57 610.875 201.514 610.875 201.404C610.875 201.293 610.903 201.238 610.951 201.238C611.522 201.238 611.932 201.19 612.19 201.1C612.447 201.01 612.621 200.824 612.711 200.554C612.802 200.285 612.843 199.87 612.843 199.31V186.398C612.843 185.838 612.802 185.43 612.711 185.168C612.621 184.905 612.447 184.726 612.176 184.622C611.911 184.518 611.501 184.47 610.951 184.47C610.896 184.47 610.875 184.415 610.875 184.304C610.875 184.194 610.903 184.138 610.951 184.138H622.246C622.427 184.138 622.511 184.221 622.511 184.387L622.566 188.097C622.566 188.132 622.518 188.159 622.42 188.18C622.323 188.201 622.267 188.18 622.246 188.125C621.961 187.047 621.481 186.246 620.807 185.727C620.132 185.209 619.242 184.947 618.143 184.947H617.343C616.808 184.947 616.418 185.064 616.168 185.306C615.917 185.548 615.792 185.921 615.792 186.418V192.111H618.004C619.033 192.111 619.826 191.925 620.376 191.552C620.925 191.179 621.203 190.66 621.203 189.99C621.203 189.935 621.252 189.907 621.349 189.907C621.447 189.907 621.495 189.935 621.495 189.99L621.468 192.498L621.495 193.839C621.53 194.474 621.551 194.972 621.551 195.345C621.551 195.379 621.495 195.4 621.391 195.4C621.287 195.4 621.231 195.379 621.231 195.345C621.231 194.585 620.953 193.984 620.389 193.548C619.833 193.113 619.026 192.892 617.976 192.892H615.792V199.193C615.792 199.732 615.89 200.133 616.084 200.395C616.279 200.658 616.592 200.789 617.016 200.789H617.893C619.277 200.789 620.389 200.492 621.224 199.898C622.059 199.304 622.671 198.385 623.06 197.134C623.06 197.1 623.095 197.079 623.165 197.079L623.178 197.086Z" fill="#010101"/>
<path d="M642.363 184.311C642.363 184.422 642.335 184.477 642.279 184.477C641.639 184.477 641.027 184.774 640.443 185.368C639.859 185.962 639.386 186.764 639.031 187.766L634.1 201.542C634.079 201.618 633.982 201.652 633.808 201.652C633.634 201.652 633.53 201.618 633.516 201.542L626.721 186.453C626.401 185.783 626.081 185.285 625.761 184.96C625.441 184.636 625.086 184.47 624.697 184.47C624.641 184.47 624.613 184.415 624.613 184.304C624.613 184.194 624.641 184.138 624.697 184.138C624.961 184.138 625.149 184.145 625.253 184.166C625.608 184.2 626.067 184.221 626.637 184.221C628.167 184.221 629.461 184.2 630.525 184.166C630.81 184.145 631.165 184.138 631.589 184.138C631.645 184.138 631.673 184.194 631.673 184.304C631.673 184.415 631.645 184.47 631.589 184.47C631.054 184.47 630.643 184.587 630.351 184.815C630.059 185.05 629.913 185.375 629.913 185.803C629.913 186.121 630.01 186.501 630.205 186.95L634.816 197.245L638.28 187.676C638.454 187.158 638.544 186.708 638.544 186.335C638.544 185.762 638.377 185.306 638.05 184.967C637.724 184.629 637.244 184.463 636.625 184.463C636.569 184.463 636.541 184.408 636.541 184.297C636.541 184.187 636.569 184.131 636.625 184.131L637.932 184.159C638.676 184.194 639.344 184.214 639.928 184.214C640.269 184.214 640.679 184.194 641.18 184.159L642.272 184.131C642.328 184.131 642.356 184.187 642.356 184.297L642.363 184.311Z" fill="#010101"/>
<path d="M646.722 200.699C645.436 199.891 644.441 198.792 643.739 197.41C643.036 196.029 642.688 194.516 642.688 192.878C642.688 190.964 643.148 189.32 644.073 187.959C644.998 186.591 646.18 185.569 647.627 184.878C649.073 184.187 650.555 183.848 652.064 183.848C653.754 183.848 655.235 184.263 656.515 185.092C657.795 185.921 658.775 187.012 659.457 188.367C660.139 189.721 660.479 191.165 660.479 192.692C660.479 194.384 660.055 195.939 659.2 197.348C658.344 198.758 657.204 199.877 655.778 200.692C654.345 201.507 652.801 201.922 651.132 201.922C649.463 201.922 648.009 201.521 646.722 200.706V200.699ZM654.693 200.312C655.486 199.711 656.098 198.827 656.543 197.666C656.988 196.505 657.211 195.117 657.211 193.5C657.211 191.787 656.96 190.26 656.466 188.912C655.966 187.565 655.249 186.508 654.31 185.748C653.371 184.988 652.266 184.601 651.007 184.601C649.393 184.601 648.148 185.237 647.279 186.515C646.409 187.786 645.971 189.569 645.971 191.856C645.971 193.659 646.236 195.269 646.757 196.692C647.279 198.115 648.002 199.228 648.913 200.022C649.831 200.823 650.861 201.224 652.015 201.224C653.01 201.224 653.9 200.92 654.693 200.319V200.312Z" fill="#010101"/>
<path d="M667.459 199.207C667.459 199.69 667.494 200.043 667.564 200.25C667.633 200.464 667.772 200.609 667.974 200.678C668.176 200.754 668.51 200.789 668.976 200.789H669.88C671.264 200.789 672.467 200.402 673.476 199.628C674.491 198.854 675.166 197.811 675.499 196.492C675.499 196.457 675.534 196.436 675.604 196.436C675.639 196.436 675.68 196.45 675.722 196.478C675.764 196.505 675.792 196.526 675.792 196.547C675.632 198.391 675.555 199.918 675.555 201.148C675.555 201.3 675.527 201.404 675.465 201.466C675.402 201.528 675.298 201.563 675.159 201.563H662.584C662.549 201.563 662.528 201.507 662.528 201.397C662.528 201.286 662.549 201.231 662.584 201.231C663.154 201.231 663.565 201.183 663.822 201.093C664.079 201.003 664.26 200.817 664.357 200.547C664.455 200.278 664.504 199.863 664.504 199.303V186.391C664.504 185.831 664.455 185.423 664.357 185.161C664.26 184.898 664.079 184.719 663.808 184.615C663.544 184.511 663.133 184.463 662.584 184.463C662.549 184.463 662.528 184.408 662.528 184.297C662.528 184.187 662.549 184.131 662.584 184.131L663.94 184.159C664.754 184.194 665.429 184.214 665.964 184.214C666.5 184.214 667.174 184.194 667.988 184.159L669.344 184.131C669.4 184.131 669.428 184.187 669.428 184.297C669.428 184.408 669.4 184.463 669.344 184.463C668.795 184.463 668.384 184.511 668.12 184.615C667.856 184.719 667.675 184.905 667.585 185.175C667.494 185.444 667.452 185.859 667.452 186.418V199.193L667.459 199.207Z" fill="#010101"/>
<path d="M693.176 184.311C693.176 184.422 693.148 184.477 693.093 184.477C692.453 184.477 691.841 184.774 691.256 185.368C690.672 185.962 690.199 186.764 689.845 187.766L684.913 201.542C684.893 201.618 684.795 201.652 684.621 201.652C684.447 201.652 684.343 201.618 684.329 201.542L677.534 186.453C677.214 185.783 676.894 185.285 676.574 184.96C676.254 184.636 675.9 184.47 675.51 184.47C675.455 184.47 675.427 184.415 675.427 184.304C675.427 184.194 675.455 184.138 675.51 184.138C675.775 184.138 675.962 184.145 676.067 184.166C676.421 184.2 676.88 184.221 677.451 184.221C678.981 184.221 680.274 184.2 681.339 184.166C681.624 184.145 681.978 184.138 682.403 184.138C682.458 184.138 682.486 184.194 682.486 184.304C682.486 184.415 682.458 184.47 682.403 184.47C681.867 184.47 681.457 184.587 681.165 184.815C680.873 185.05 680.726 185.375 680.726 185.803C680.726 186.121 680.824 186.501 681.019 186.95L685.63 197.245L689.093 187.676C689.267 187.158 689.358 186.708 689.358 186.335C689.358 185.762 689.191 185.306 688.864 184.967C688.537 184.629 688.057 184.463 687.438 184.463C687.382 184.463 687.355 184.408 687.355 184.297C687.355 184.187 687.382 184.131 687.438 184.131L688.746 184.159C689.49 184.194 690.158 184.214 690.742 184.214C691.083 184.214 691.493 184.194 691.994 184.159L693.086 184.131C693.141 184.131 693.169 184.187 693.169 184.297L693.176 184.311Z" fill="#010101"/>
<path d="M706.279 197.086C706.335 197.086 706.383 197.1 706.425 197.127C706.467 197.155 706.495 197.176 706.495 197.196C706.321 198.647 706.23 199.967 706.23 201.155C706.23 201.307 706.203 201.411 706.147 201.473C706.091 201.535 705.987 201.57 705.827 201.57H694.052C693.996 201.57 693.976 201.514 693.976 201.404C693.976 201.293 694.003 201.238 694.052 201.238C694.622 201.238 695.033 201.19 695.29 201.1C695.547 201.01 695.721 200.824 695.812 200.554C695.902 200.285 695.944 199.87 695.944 199.31V186.398C695.944 185.838 695.902 185.43 695.812 185.168C695.721 184.905 695.547 184.726 695.276 184.622C695.012 184.518 694.602 184.47 694.052 184.47C693.996 184.47 693.976 184.415 693.976 184.304C693.976 184.194 694.003 184.138 694.052 184.138H705.347C705.528 184.138 705.611 184.221 705.611 184.387L705.667 188.097C705.667 188.132 705.618 188.159 705.521 188.18C705.424 188.201 705.368 188.18 705.347 188.125C705.062 187.047 704.582 186.246 703.907 185.727C703.233 185.209 702.342 184.947 701.244 184.947H700.444C699.908 184.947 699.519 185.064 699.268 185.306C699.018 185.548 698.893 185.921 698.893 186.418V192.111H701.104C702.134 192.111 702.927 191.925 703.476 191.552C704.026 191.179 704.304 190.66 704.304 189.99C704.304 189.935 704.352 189.907 704.45 189.907C704.547 189.907 704.596 189.935 704.596 189.99L704.568 192.498L704.596 193.839C704.631 194.474 704.652 194.972 704.652 195.345C704.652 195.379 704.596 195.4 704.492 195.4C704.387 195.4 704.332 195.379 704.332 195.345C704.332 194.585 704.053 193.984 703.49 193.548C702.934 193.113 702.127 192.892 701.077 192.892H698.893V199.193C698.893 199.732 698.99 200.133 699.185 200.395C699.38 200.658 699.693 200.789 700.117 200.789H700.993C702.377 200.789 703.49 200.492 704.325 199.898C705.159 199.304 705.771 198.385 706.161 197.134C706.161 197.1 706.196 197.079 706.265 197.079L706.279 197.086Z" fill="#010101"/>
<path d="M418.969 198.723C421.527 198.723 423.601 196.663 423.601 194.122C423.601 191.581 421.527 189.52 418.969 189.52C416.411 189.52 414.337 191.581 414.337 194.122C414.337 196.663 416.411 198.723 418.969 198.723Z" fill="#A71E22"/>
<path d="M572.853 198.723C575.411 198.723 577.485 196.663 577.485 194.122C577.485 191.581 575.411 189.52 572.853 189.52C570.295 189.52 568.221 191.581 568.221 194.122C568.221 196.663 570.295 198.723 572.853 198.723Z" fill="#A71E22"/>
</g>
<path d="M20.9289 274L18.2409 268.016H5.76092L3.07292 274H0.608922L10.8489 251.6H13.1849L23.4249 274H20.9289ZM6.62492 266.096H17.3769L12.0009 254.064L6.62492 266.096ZM41.6814 274.192C38.3214 274.192 35.0254 273.008 33.3614 271.28L34.2894 269.456C35.8894 271.024 38.7374 272.176 41.6814 272.176C45.8734 272.176 47.6974 270.416 47.6974 268.208C47.6974 262.064 33.9054 265.84 33.9054 257.552C33.9054 254.256 36.4654 251.408 42.1614 251.408C44.6894 251.408 47.3134 252.144 49.1054 253.392L48.3054 255.28C46.3854 254.032 44.1454 253.424 42.1614 253.424C38.0654 253.424 36.2414 255.248 36.2414 257.488C36.2414 263.632 50.0334 259.92 50.0334 268.08C50.0334 271.376 47.4094 274.192 41.6814 274.192ZM64.9209 274.192C58.2009 274.192 53.2089 269.36 53.2089 262.8C53.2089 256.24 58.2009 251.408 64.9529 251.408C68.2169 251.408 71.1609 252.496 73.1449 254.672L71.6409 256.176C69.8169 254.32 67.5769 253.52 65.0169 253.52C59.6089 253.52 55.5449 257.488 55.5449 262.8C55.5449 268.112 59.6089 272.08 65.0169 272.08C67.5769 272.08 69.8169 271.28 71.6409 269.392L73.1449 270.896C71.1609 273.072 68.2169 274.192 64.9209 274.192ZM94.5769 251.6H96.9129V274H94.5769V263.664H80.5609V274H78.1929V251.6H80.5609V261.584H94.5769V251.6ZM114.016 274.192C107.232 274.192 102.24 269.328 102.24 262.8C102.24 256.272 107.232 251.408 114.016 251.408C120.736 251.408 125.76 256.24 125.76 262.8C125.76 269.36 120.736 274.192 114.016 274.192ZM114.016 272.08C119.392 272.08 123.392 268.144 123.392 262.8C123.392 257.456 119.392 253.52 114.016 253.52C108.608 253.52 104.576 257.456 104.576 262.8C104.576 268.144 108.608 272.08 114.016 272.08ZM140.86 274.192C134.076 274.192 129.084 269.328 129.084 262.8C129.084 256.272 134.076 251.408 140.86 251.408C147.58 251.408 152.604 256.24 152.604 262.8C152.604 269.36 147.58 274.192 140.86 274.192ZM140.86 272.08C146.236 272.08 150.236 268.144 150.236 262.8C150.236 257.456 146.236 253.52 140.86 253.52C135.452 253.52 131.42 257.456 131.42 262.8C131.42 268.144 135.452 272.08 140.86 272.08ZM157.912 274V251.6H160.28V271.952H172.824V274H157.912ZM199.242 262.448C202.122 263.088 203.85 264.976 203.85 268.016C203.85 271.824 201.034 274 195.434 274H185.13V251.6H194.794C199.786 251.6 202.666 253.712 202.666 257.36C202.666 259.92 201.29 261.616 199.242 262.448ZM194.634 253.552H187.498V261.68H194.634C198.218 261.68 200.298 260.304 200.298 257.616C200.298 254.928 198.218 253.552 194.634 253.552ZM195.402 272.048C199.338 272.048 201.482 270.768 201.482 267.824C201.482 264.912 199.338 263.632 195.402 263.632H187.498V272.048H195.402ZM225.427 251.6L216.467 266.256V274H214.131V266.256L205.171 251.6H207.699L215.379 264.176L223.059 251.6H225.427ZM241.826 274V253.648H233.954V251.6H252.066V253.648H244.194V274H241.826ZM272.233 251.6H274.569V274H272.233V263.664H258.217V274H255.849V251.6H258.217V261.584H272.233V251.6ZM284.248 271.952H297.72V274H281.88V251.6H297.24V253.648H284.248V261.616H295.832V263.632H284.248V271.952ZM317.838 274.192C314.478 274.192 311.182 273.008 309.518 271.28L310.446 269.456C312.046 271.024 314.894 272.176 317.838 272.176C322.03 272.176 323.854 270.416 323.854 268.208C323.854 262.064 310.062 265.84 310.062 257.552C310.062 254.256 312.622 251.408 318.318 251.408C320.846 251.408 323.47 252.144 325.262 253.392L324.462 255.28C322.542 254.032 320.302 253.424 318.318 253.424C314.222 253.424 312.398 255.248 312.398 257.488C312.398 263.632 326.19 259.92 326.19 268.08C326.19 271.376 323.566 274.192 317.838 274.192ZM347.733 251.6H350.069V274H347.733V263.664H333.717V274H331.349V251.6H333.717V261.584H347.733V251.6ZM357.38 274V251.6H359.748V274H357.38ZM383.011 251.6H385.411L375.491 274H373.155L363.235 251.6H365.795L374.371 271.056L383.011 251.6ZM413.889 251.6H416.225V274H414.273L399.873 255.824V274H397.505V251.6H399.457L413.889 269.776V251.6ZM440.273 274L437.585 268.016H425.105L422.417 274H419.953L430.193 251.6H432.529L442.769 274H440.273ZM425.969 266.096H436.721L431.345 254.064L425.969 266.096ZM446.474 274V251.6H455.594C462.762 251.6 467.594 256.208 467.594 262.8C467.594 269.392 462.762 274 455.594 274H446.474ZM448.842 271.952H455.466C461.418 271.952 465.258 268.176 465.258 262.8C465.258 257.424 461.418 253.648 455.466 253.648H448.842V271.952ZM489.335 274L486.647 268.016H474.167L471.479 274H469.015L479.255 251.6H481.591L491.831 274H489.335ZM475.031 266.096H485.783L480.407 254.064L475.031 266.096ZM513.425 274H510.833L505.713 266.8C505.137 266.864 504.561 266.896 503.921 266.896H497.905V274H495.537V251.6H503.921C509.617 251.6 513.073 254.48 513.073 259.28C513.073 262.8 511.217 265.264 507.953 266.32L513.425 274ZM503.857 264.88C508.337 264.88 510.705 262.8 510.705 259.28C510.705 255.696 508.337 253.648 503.857 253.648H497.905V264.88H503.857ZM542.397 253.648H529.405V262.448H540.989V264.496H529.405V274H527.037V251.6H542.397V253.648ZM556.797 274.192C550.013 274.192 545.021 269.328 545.021 262.8C545.021 256.272 550.013 251.408 556.797 251.408C563.517 251.408 568.541 256.24 568.541 262.8C568.541 269.36 563.517 274.192 556.797 274.192ZM556.797 272.08C562.173 272.08 566.173 268.144 566.173 262.8C566.173 257.456 562.173 253.52 556.797 253.52C551.389 253.52 547.357 257.456 547.357 262.8C547.357 268.144 551.389 272.08 556.797 272.08ZM582.873 274.192C577.145 274.192 573.657 270.864 573.657 264.432V251.6H576.025V264.336C576.025 269.648 578.521 272.08 582.873 272.08C587.257 272.08 589.753 269.648 589.753 264.336V251.6H592.057V264.432C592.057 270.864 588.601 274.192 582.873 274.192ZM615.577 251.6H617.913V274H615.961L601.561 255.824V274H599.193V251.6H601.145L615.577 269.776V251.6ZM625.224 274V251.6H634.344C641.512 251.6 646.344 256.208 646.344 262.8C646.344 269.392 641.512 274 634.344 274H625.224ZM627.592 271.952H634.216C640.168 271.952 644.008 268.176 644.008 262.8C644.008 257.424 640.168 253.648 634.216 253.648H627.592V271.952ZM668.085 274L665.397 268.016H652.917L650.229 274H647.765L658.005 251.6H660.341L670.581 274H668.085ZM653.781 266.096H664.533L659.157 254.064L653.781 266.096ZM677.514 274V253.648H669.642V251.6H687.754V253.648H679.882V274H677.514ZM691.537 274V251.6H693.905V274H691.537ZM710.985 274.192C704.201 274.192 699.209 269.328 699.209 262.8C699.209 256.272 704.201 251.408 710.985 251.408C717.705 251.408 722.729 256.24 722.729 262.8C722.729 269.36 717.705 274.192 710.985 274.192ZM710.985 272.08C716.361 272.08 720.361 268.144 720.361 262.8C720.361 257.456 716.361 253.52 710.985 253.52C705.577 253.52 701.545 257.456 701.545 262.8C701.545 268.144 705.577 272.08 710.985 272.08ZM744.421 251.6H746.757V274H744.805L730.405 255.824V274H728.037V251.6H729.989L744.421 269.776V251.6Z" fill="black"/>
<defs>
<clipPath id="clip0_2347_437">
<rect width="750" height="225" fill="white" transform="translate(0.544922)"/>
</clipPath>
</defs>
</svg>
